<?xml version="1.0" encoding="UTF-8" standalone="no"?>
<!-- Created with Inkscape (http://www.inkscape.org/) -->

<svg
   width="526.28387mm"
   height="206.63672mm"
   viewBox="0 0 526.28387 206.63671"
   version="1.1"
   id="svg1890"
   inkscape:version="1.1 (c68e22c387, 2021-05-23)"
   sodipodi:docname="ConsoleWireframe.svg"
   xmlns:inkscape="http://www.inkscape.org/namespaces/inkscape"
   xmlns:sodipodi="http://sodipodi.sourceforge.net/DTD/sodipodi-0.dtd"
   xmlns="http://www.w3.org/2000/svg"
   xmlns:svg="http://www.w3.org/2000/svg">
  <sodipodi:namedview
     id="namedview1892"
     pagecolor="#ffffff"
     bordercolor="#666666"
     borderopacity="1.0"
     inkscape:pageshadow="2"
     inkscape:pageopacity="0.0"
     inkscape:pagecheckerboard="0"
     inkscape:document-units="mm"
     showgrid="false"
     fit-margin-top="0"
     fit-margin-left="0"
     fit-margin-right="0"
     fit-margin-bottom="0"
     inkscape:zoom="0.67081229"
     inkscape:cx="921.50426"
     inkscape:cy="490.85369"
     inkscape:window-width="2560"
     inkscape:window-height="1417"
     inkscape:window-x="1912"
     inkscape:window-y="-3"
     inkscape:window-maximized="1"
     inkscape:current-layer="layer1" />
  <defs
     id="defs1887" />
  <g
     inkscape:label="Layer 1"
     inkscape:groupmode="layer"
     id="layer1"
     transform="translate(162.17508,-31.814413)">
    <path
       id="path2519"
       style="color:#000000;fill:#000000;stroke-width:0.264583;-inkscape-stroke:none"
       d="m -142.85547,31.814453 c -1.56681,0.23573 -3.1709,0.325124 -4.71553,0.649097 -1.57769,0.643864 -3.20351,1.202965 -4.7517,1.8991 -1.41017,1.136431 -2.8783,2.21633 -4.25394,3.386499 -1.00077,1.364129 -2.1375,2.648799 -3.05704,4.060416 -0.62501,1.554702 -1.335,3.086184 -1.90939,4.654717 -0.24674,2.101871 -0.73886,4.186942 -0.61123,6.314624 0.001,55.480524 -0.003,110.961684 0.002,166.441794 0.2457,1.5261 0.33964,3.09264 0.67306,4.5954 0.66804,1.58035 1.25717,3.2053 1.97175,4.75937 1.10442,1.40445 2.14635,2.87246 3.28873,4.2384 1.3361,0.95564 2.60005,2.03598 3.98038,2.91616 1.4348,0.57837 2.82536,1.31191 4.28565,1.80074 1.98212,0.27449 3.95403,0.68231 5.94222,0.87746 161.91947,0.0147 323.83945,0.0335 485.7586,0.0429 1.91866,-0.28326 3.86948,-0.43362 5.7697,-0.79179 2.6325,-0.85155 5.07286,-2.20708 7.34266,-3.76654 2.11514,-2.08367 4.11312,-4.3642 5.31458,-7.11211 0.56426,-1.2829 1.06121,-2.61155 1.43672,-3.95758 0.23009,-1.88491 0.59144,-3.76154 0.47423,-5.66885 -0.001,-55.43093 0.003,-110.86237 -0.002,-166.292972 -0.22467,-1.379627 -0.26994,-2.802031 -0.60338,-4.156073 -0.50475,-1.32587 -0.8791,-2.715503 -1.46059,-4.00387 -0.95169,-1.393996 -1.78423,-2.887159 -2.80219,-4.22537 -1.89152,-1.886647 -4.02305,-3.557189 -6.3735,-4.823015 -1.66296,-0.549255 -3.30733,-1.209242 -4.98143,-1.692093 -163.57271,-0.04816 -327.146053,-0.101552 -490.71836,-0.146454 z m 56.769532,0.544922 c 18.652995,0 37.30599,0 55.958985,0 0,2.998047 0,5.996094 0,8.994141 -37.30599,0 -74.611977,0 -111.917967,0 0,-2.998047 0,-5.996094 0,-8.994141 18.65299,0 37.30599,0 55.958982,0 z m 139.171876,0 c 27.560546,0 55.121092,0 82.681642,0 0,2.998047 0,5.996094 0,8.994141 -55.121747,0 -110.243491,0 -165.365236,0 0,-2.998047 0,-5.996094 0,-8.994141 27.5611977,0 55.122396,0 82.683594,0 z m 236.271482,0 c 18.21224,0 36.42448,0 54.63672,0 0,2.998047 0,5.996094 0,8.994141 -36.42383,0 -72.84766,0 -109.27148,0 0,-2.998047 0,-5.996094 0,-8.994141 18.21158,0 36.42317,0 54.63476,0 z m 57.19727,0.316406 c 2.09729,0.30604 4.18296,0.859437 6.12657,1.686555 2.31966,1.336306 4.50914,2.911863 6.35067,4.865874 1.7091,2.39625 2.98488,5.08485 3.91544,7.876825 0.20336,1.331517 0.26342,2.695584 0.41201,4.039496 -3.00131,0 -6.00261,0 -9.00391,0 -0.18104,-1.920257 -0.84606,-3.777488 -1.7629,-5.454674 -0.80472,-0.757996 -1.48725,-1.681656 -2.36645,-2.339296 -1.0207,-0.459694 -1.97776,-1.126398 -3.03572,-1.464697 -0.80042,-0.106033 -1.60087,-0.211842 -2.40134,-0.317505 0,-3.032552 0,-6.065104 0,-9.097656 0.58854,0.06836 1.17709,0.136719 1.76563,0.205078 z M 185.24414,32.492188 c 16.27214,-10e-7 32.54427,0 48.81641,0 0.0485,2.95376 0.096,5.907536 0.14257,8.861328 -32.63867,0 -65.27734,0 -97.91601,0 0.0469,-2.953776 0.0938,-5.907552 0.14062,-8.861328 16.27214,-10e-7 32.54428,0 48.81641,0 z m -328.08398,4.595703 c 0,1.493489 0,2.986979 0,4.480468 -0.96068,0.196459 -2.00433,0.124805 -2.91302,0.491276 -1.84824,0.812261 -3.51118,2.045499 -4.83544,3.556845 -0.48133,1.013921 -1.07894,1.992276 -1.49512,3.025626 -0.10993,0.834266 -0.22077,1.668411 -0.3326,2.502425 -3.0358,0 -6.07161,0 -9.10742,0 0.26097,-1.633081 0.38907,-3.302657 0.73355,-4.912973 0.65361,-1.469429 1.18638,-3.009412 1.916,-4.434806 1.03681,-1.286442 1.97471,-2.671401 3.0696,-3.899071 1.31626,-0.965981 2.56032,-2.056552 3.91892,-2.948416 1.54595,-0.586593 3.04187,-1.351316 4.61917,-1.826289 1.47604,-0.217821 2.94708,-0.52899 4.42636,-0.497976 0,1.48763 0,2.97526 0,4.462891 z m 112.712887,97.925779 c 0,30.95703 0,61.91406 0,92.8711 -37.917969,-0.0166 -75.835937,-0.0342 -113.753907,-0.0527 -1.53788,-0.3279 -2.99551,-1.04112 -4.30714,-1.87019 -0.70482,-0.81368 -1.61297,-1.48736 -2.18293,-2.39389 -0.4279,-0.98777 -0.97314,-1.94959 -1.33024,-2.95311 0,-57.09817 0,-114.19635 0,-171.294528 0.55232,-1.077107 0.9541,-2.258705 1.59914,-3.271579 0.82764,-0.771608 1.54013,-1.706205 2.43593,-2.380662 1.03682,-0.447063 2.04815,-1.00907 3.10008,-1.386944 38.14636,-0.04676 76.292713,-0.0936 114.439067,-0.140502 0,30.957682 0,61.915365 0,92.873045 z M 290.61328,42.210938 c 18.66602,0.02344 37.33203,0.04687 55.99805,0.07031 1.0424,0.552058 2.21639,0.908855 3.17373,1.588074 0.75093,0.755288 1.65252,1.396621 2.30921,2.223163 0.52098,1.120768 1.29433,2.159619 1.3331,3.437594 0.27641,1.371577 0.42264,2.753743 0.35007,4.153513 0.003,54.987628 0.005,109.975258 0.006,164.962888 -0.31054,1.96484 -0.77771,3.95433 -1.92368,5.59152 -1.43339,1.4991 -3.17343,2.74236 -5.08647,3.51603 -37.35079,0.0451 -74.70157,0.0913 -112.05235,0.13855 0,-61.91667 0,-123.83334 0,-185.750004 18.63086,0.02279 37.26172,0.04557 55.89258,0.06836 z m -237.527342,-0.0625 c 27.560546,0 55.121092,-10e-7 82.681642,0 0,10.230468 0,20.460937 0,30.691406 -41.507163,0 -83.014325,0 -124.521486,0 -0.430143,1.019911 -0.149845,2.175279 -0.246682,3.254265 -0.14638,30.358041 -0.107543,60.716701 -0.101167,91.075031 0.03256,13.7718 -0.0011,27.54436 0.131625,41.31553 -0.05685,0.58968 0.265805,1.09299 0.908021,0.88056 41.276562,0 82.553125,0 123.829689,0 0,6.17318 0,12.34636 0,18.51954 -55.121747,0 -110.243491,0 -165.365236,0 0,-61.91211 0,-123.82422 0,-185.736332 27.5611977,0 55.122396,-10e-7 82.683594,0 z m 132.158202,0 c 16.31576,0 32.63151,-10e-7 48.94727,0 0,61.912112 0,123.824222 0,185.736332 -32.63151,0 -65.26302,0 -97.89453,0 0,-6.17188 -10e-6,-12.34375 0,-18.51563 14.15494,-0.046 28.30989,-0.0919 42.46484,-0.13476 0.0267,-43.70375 0.15047,-87.40761 0.047,-131.111316 -0.056,-1.622917 0.0791,-3.26962 -0.11875,-4.877714 0.0355,-0.730902 -0.85599,-0.285819 -1.30165,-0.405506 -13.69713,0 -27.39427,0 -41.0914,0 -1e-5,-10.230469 0,-20.460938 0,-30.691406 16.31575,0 32.63151,-10e-7 48.94726,0 z m -342.37109,9.791015 c 1.49935,0 2.99869,0 4.49804,0 0,55.473957 0,110.947917 0,166.421877 -2.99804,0 -5.99609,0 -8.99414,0 0,-55.47396 0,-110.94792 0,-166.421877 1.4987,0 2.9974,0 4.4961,0 z m 515.9375,0 c 1.49935,0 2.99869,0 4.49804,0 0,55.473957 0,110.947917 0,166.421877 -2.99804,0 -5.99609,0 -8.99414,0 0,-55.47396 0,-110.94792 0,-166.421877 1.4987,0 2.9974,0 4.4961,0 z m -467.51367,14.943359 c -0.0452,9.085289 -0.0908,18.170575 -0.13672,27.25586 -9.12956,0.047 -18.25914,0.09021 -27.38868,0.138672 0.0456,11.065756 0.0898,22.131536 0.13868,33.197266 9.12693,0.0481 18.25391,0.0919 27.38086,0.14062 0,9.08334 0,18.16667 0,27.25 11.068353,-0.0456 22.136741,-0.0898 33.205074,-0.13867 0.04846,-9.03708 0.09166,-18.07422 0.138672,-27.11133 9.037749,-0.0487 18.075539,-0.0925 27.113281,-0.14062 0.04886,-11.06768 0.09308,-22.13542 0.138672,-33.203126 -9.083985,0 -18.167969,0 -27.251953,0 -0.04701,-9.127598 -0.09019,-18.255232 -0.138672,-27.382812 -11.065729,-0.04886 -22.131513,-0.09306 -33.197264,-0.138672 l -10e-4,0.09999 z m 16.531245,0.666016 c 5.13151,0 10.263021,0 15.394531,0 -0.284826,0.662059 -0.934871,0.542971 -1.5375,0.529297 -9.604036,0 -19.208073,0 -28.812106,0 -0.83057,-0.671356 0.0493,-0.53768 0.6625,-0.529297 4.76419,0 9.528382,0 14.292575,0 z m -15.833985,0.511719 c 0.64942,0.401863 0.25045,1.234815 0.35358,1.861308 -0.0427,8.240239 -0.0849,16.480481 -0.12702,24.720723 -0.66101,-0.380691 -0.31589,-1.178139 -0.39843,-1.798437 0,-8.31849 0,-16.63698 0,-24.955469 0.0573,0.05729 0.11458,0.114583 0.17187,0.171875 z m 31.841798,13.048828 c -10e-7,4.477865 0,8.955729 0,13.433594 -0.669496,0.83106 -0.538513,-0.04554 -0.529297,-0.660547 0,-8.515495 0,-17.03099 0,-25.546484 0.671159,-0.830667 0.537641,0.04506 0.529297,0.660546 -10e-7,4.037631 0,8.075261 0,12.112891 z m -15.875,-12.501953 c 4.936848,0 9.873697,0 14.810546,0 0.04872,9.127593 0.09251,18.255227 0.140625,27.382812 9.039039,0.04847 18.078131,0.09166 27.117188,0.138672 0,9.875654 0,19.751304 0,29.626954 -9.083985,0 -18.167969,0 -27.251953,0 0,9.08398 0,18.16797 0,27.25195 -9.875651,0 -19.751302,0 -29.626954,0 -0.0466,-9.03906 -0.0906,-18.07815 -0.14062,-27.11719 -9.08331,-0.0906 -18.16666,-0.17696 -27.25,-0.26367 -0.0456,-9.83268 -0.0911,-19.66536 -0.13672,-29.498044 9.1289,-0.04701 18.25783,-0.09019 27.38672,-0.138672 0.0501,-9.127575 0.094,-18.255209 0.14062,-27.382812 4.93685,0 9.873699,0 14.810548,0 z m 186.927734,5.027344 c 27.736978,0 55.473958,0 83.210938,0 0,44.978514 0,89.957034 0,134.935544 -55.47396,0 -110.947917,0 -166.421876,0 0,-44.97851 0,-89.95703 0,-134.935544 27.73698,0 55.473959,0 83.210938,0 z m 210.380858,2.65039 c -1.34226,0.05732 -2.72289,-0.184477 -4.00926,0.308934 -1.31736,0.403559 -2.72062,0.579374 -3.98467,1.123015 -2.19338,1.1553 -4.50489,2.104205 -6.52706,3.557063 -11.66909,7.586403 -23.35866,15.14509 -35.01541,22.748112 -1.42196,1.20566 -2.93922,2.319 -4.30499,3.57907 -0.99746,1.33967 -2.10893,2.60923 -3.03736,3.99143 -0.68423,1.51974 -1.49498,2.99506 -2.10694,4.53976 -0.39602,1.8996 -0.9273,3.78428 -1.24478,5.69246 0.038,1.52799 -0.0743,3.07458 0.0531,4.59152 0.48288,1.76797 0.84182,3.58203 1.39796,5.32278 0.89244,1.69943 1.66712,3.47583 2.63021,5.12911 1.0986,1.2649 2.1061,2.62463 3.2606,3.83199 1.3078,0.96686 2.54474,2.05014 3.89386,2.94907 1.55271,0.68055 3.04744,1.52723 4.63633,2.10504 1.6577,0.35518 3.2993,0.85064 4.96662,1.1219 1.8823,-0.0245 3.7745,0.0279 5.65083,-0.0456 1.71553,-0.47062 3.47742,-0.81641 5.16592,-1.35981 2.01968,-1.04525 4.13344,-1.92574 5.98363,-3.26731 11.67053,-7.57365 23.35816,-15.12391 35.01722,-22.71339 1.55829,-1.26949 3.17284,-2.48456 4.69763,-3.78643 1.08175,-1.46353 2.27926,-2.85679 3.29185,-4.36233 0.69756,-1.60677 1.52488,-3.17112 2.14659,-4.80267 0.34332,-1.73711 0.81357,-3.46091 1.08266,-5.20571 -0.0366,-1.502375 0.0709,-3.021645 -0.05,-4.514156 -0.4723,-1.840189 -0.8105,-3.728596 -1.36015,-5.540725 -0.84741,-1.605665 -1.57436,-3.289825 -2.49118,-4.850095 -1.1179,-1.295341 -2.14809,-2.681272 -3.31924,-3.921914 -1.36138,-1.012811 -2.65198,-2.140093 -4.0566,-3.08268 -1.59433,-0.701275 -3.14635,-1.533168 -4.76637,-2.155654 -1.66299,-0.313485 -3.31421,-0.748518 -4.98463,-0.988263 -0.87214,0.0018 -1.74427,0.0036 -2.61641,0.0054 z m 4.71485,1.035156 c 1.36207,0.31995 2.79178,0.438873 4.01257,1.178701 1.24772,0.647047 2.60977,1.106796 3.78261,1.876229 1.26091,1.026348 2.63997,1.929678 3.82656,3.032959 1.06513,1.326809 2.23432,2.585424 3.23569,3.95407 0.65032,1.38803 1.46155,2.715927 2.01111,4.141446 0.40443,1.735019 0.94268,3.453245 1.26622,5.198236 -0.0421,1.936982 0.0844,3.892207 -0.0642,5.817667 -0.38521,1.50235 -0.55809,3.07631 -1.08026,4.53201 -0.73836,1.47151 -1.32632,3.03502 -2.15855,4.44913 -1.08626,1.33043 -2.04721,2.78323 -3.21461,4.03464 -1.1193,0.91393 -2.23915,1.82719 -3.35938,2.73999 -0.37957,-0.49174 0.009,-0.84754 0.45348,-1.1136 1.01261,-0.90253 2.19423,-1.64172 3.09578,-2.65257 0.89576,-1.20126 1.90981,-2.33041 2.73487,-3.57506 0.68907,-1.55089 1.50855,-3.05881 2.11997,-4.63539 0.29671,-1.51109 0.72434,-3.00864 0.94327,-4.52807 -0.0221,-1.836023 0.0337,-3.682164 -0.0384,-5.512051 -0.45186,-1.617361 -0.78174,-3.280401 -1.30508,-4.870917 -0.72545,-1.3355 -1.29082,-2.773701 -2.11013,-4.04903 -1.07731,-1.279697 -2.0555,-2.660405 -3.1917,-3.880164 -1.2944,-0.968945 -2.51219,-2.062698 -3.85076,-2.959619 -1.58969,-0.688661 -3.13704,-1.507199 -4.75217,-2.117813 -1.81936,-0.355207 -3.63208,-0.801651 -5.4547,-1.105988 -1.67014,0.166599 -3.36538,0.176966 -5.02113,0.431545 -1.38193,0.400653 -2.83108,0.621734 -4.17251,1.131338 -1.25103,0.630453 -2.50299,1.259047 -3.75547,1.886608 -0.79065,-0.550171 0.23348,-0.704716 0.69862,-0.981044 1.59059,-0.699747 3.07763,-1.689756 4.81818,-1.972322 1.52721,-0.353735 3.02896,-0.875924 4.61543,-0.840612 1.48528,-0.02632 2.99592,-0.394028 4.44413,0.07756 0.49017,0.10404 0.98034,0.208079 1.47052,0.312118 z m -4.30665,0.81836 c 1.36134,0.0098 2.73575,-0.096 4.04903,0.338538 1.39633,0.33497 2.84621,0.515045 4.10157,1.260237 1.42688,0.736848 3.02394,1.200445 4.20344,2.335023 1.26672,1.095531 2.77304,1.950209 3.72522,3.361676 0.97356,1.279914 2.16887,2.416468 2.76875,3.937062 0.59241,1.222593 1.3545,2.387073 1.53225,3.762824 0.31258,1.516889 0.80382,3.012833 1.00256,4.542921 -0.0526,1.674583 0.1803,3.378267 -0.30255,5.009017 -0.32631,1.29159 -0.42125,2.66119 -0.90103,3.90063 -0.7905,1.55805 -1.47105,3.18603 -2.3256,4.70281 -1.0135,1.15053 -1.87385,2.45514 -2.98169,3.51017 -2.952,2.47048 -6.27312,4.44154 -9.44202,6.61311 -10.30751,6.80581 -20.68529,13.50772 -31.05251,20.22005 -1.49616,0.70342 -2.93239,1.56684 -4.46512,2.17135 -1.73501,0.40317 -3.45325,0.94518 -5.19822,1.26437 -1.57462,-0.0571 -3.16893,0.055 -4.73128,-0.10735 -1.49027,-0.39215 -3.05082,-0.57854 -4.4954,-1.10347 -1.37942,-0.705 -2.87118,-1.22582 -4.17613,-2.05388 -1.23569,-0.99947 -2.59017,-1.87475 -3.7504,-2.95332 -0.98421,-1.24112 -2.12102,-2.38134 -3.01008,-3.68488 -0.66922,-1.42444 -1.49693,-2.78949 -2.06635,-4.25117 -0.40205,-1.8697 -1.15414,-3.68454 -1.14175,-5.61878 -0.0125,-1.47243 -0.40157,-2.97421 0.0636,-4.40942 0.37534,-1.46541 0.5404,-3.0019 1.05453,-4.42025 0.70744,-1.40489 1.26335,-2.90255 2.06502,-4.24975 0.99956,-1.21922 1.87831,-2.55603 2.95746,-3.69824 2.74216,-2.35199 5.87446,-4.19661 8.84489,-6.22826 10.67745,-7.027711 21.36968,-14.03696 32.1944,-20.835241 1.29281,-0.778664 2.55529,-1.588182 3.98631,-2.077995 1.70588,-0.396921 3.39509,-0.928371 5.11106,-1.243187 0.79336,0.0018 1.58671,0.0036 2.38007,0.0054 z m -12.52734,2.755859 c -0.19581,0.660047 -1.0509,0.811228 -1.53306,1.250258 -11.62221,7.519614 -23.18256,15.13731 -34.88177,22.535891 -0.60707,0.42805 -0.12121,-0.74689 0.30269,-0.70489 11.81286,-7.64296 23.56003,-15.404468 35.4637,-22.895712 0.12216,-0.03814 0.79133,-0.54625 0.64844,-0.185547 z m 12.2832,6.716797 c -1.21954,0.26023 -2.49606,0.344425 -3.68292,0.704418 -1.06249,0.585445 -2.23884,1.008223 -3.2367,1.686093 -0.74455,0.803902 -1.69276,1.449746 -2.31319,2.349593 -0.5655,1.066598 -1.24062,2.094102 -1.74332,3.182633 -0.20983,1.383776 -0.54322,2.768327 -0.677,4.152054 0.27742,1.301591 0.44717,2.641841 0.7881,3.920571 0.66955,1.09567 1.19302,2.30422 1.94688,3.33448 0.83478,0.71002 1.51705,1.6353 2.44448,2.21411 1.13361,0.50992 2.20639,1.20424 3.37397,1.61064 2.01046,0.42637 4.09698,0.55518 6.11239,0.0805 0.78944,-0.0772 1.52579,-0.30114 2.17623,-0.76553 1.03584,-0.64198 2.26115,-1.03803 3.01038,-2.0522 0.75577,-0.87161 1.77964,-1.55556 2.1612,-2.69007 0.48654,-1.11762 1.27175,-2.1415 1.29829,-3.40413 0.0825,-0.98435 0.4478,-1.972337 0.35241,-2.954325 -0.2644,-1.199992 -0.35021,-2.460629 -0.71992,-3.624774 -0.59321,-1.039661 -1.02061,-2.202483 -1.71081,-3.169806 -0.8907,-0.789487 -1.66995,-1.736729 -2.62467,-2.435003 -1.11856,-0.501884 -2.1765,-1.193697 -3.33117,-1.583964 -1.20809,-0.182789 -2.4168,-0.383923 -3.62463,-0.55528 z m 0.32227,0.980469 c 1.03139,0.03524 2.09376,-0.05608 3.10642,0.05567 2.06189,0.998804 4.11006,2.196695 5.60832,3.950963 0.56823,1.112478 1.31592,2.163589 1.77167,3.314249 0.15444,1.315255 0.47351,2.632455 0.52263,3.946536 -0.24852,1.171965 -0.32303,2.405605 -0.67865,3.540115 -0.62411,1.03162 -1.11239,2.17018 -1.81918,3.1367 -1.51922,1.54449 -3.35088,2.73535 -5.33669,3.55485 -1.85546,0.22803 -3.75848,0.78997 -5.56721,0.19633 -2.51597,-0.65743 -4.87024,-2.0524 -6.56675,-4.01726 -0.56777,-1.13399 -1.31491,-2.20591 -1.77735,-3.37561 -0.1369,-1.24546 -0.53131,-2.48551 -0.48871,-3.735042 0.21293,-1.177134 0.0541,-2.461927 0.73616,-3.502384 0.5795,-1.082454 0.9985,-2.284021 1.6776,-3.292256 1.05583,-0.88482 1.92135,-2.048183 3.25328,-2.530042 0.88391,-0.402486 1.7409,-0.924298 2.64283,-1.250368 0.97188,0.0025 1.94375,0.005 2.91563,0.0076 z m -427.625,6.208984 c 4.47786,0 8.95573,0 13.43359,0 0.82839,0.670716 -0.0484,0.537849 -0.6625,0.529297 -8.51549,0 -17.03099,0 -25.54648,0 -0.828,-0.672372 0.0479,-0.536981 0.6625,-0.529297 4.03763,0 8.07526,0 12.11289,0 z m 59.527343,0 c 4.360677,0 8.721354,0 13.082031,0 -0.286068,0.661452 -0.93656,0.543163 -1.539453,0.529297 -8.426953,0 -16.853906,0 -25.280859,0 0.283226,-0.663679 0.935847,-0.542043 1.5375,-0.529297 4.066927,0 8.133854,0 12.200781,0 z m 13.693359,16.117189 c -0.01329,5.16925 0.0072,10.3393 -0.08398,15.50781 -0.539208,-0.34939 -0.470962,-0.94516 -0.442782,-1.50975 0.04397,-9.81641 0.08806,-19.63282 0.132235,-29.449233 0.733569,-0.409945 0.261352,0.847719 0.394531,1.26914 0,4.727343 0,9.454693 0,14.182033 z M -135.25,95.564453 c 0.64661,0.345686 0.23028,1.19211 0.34766,1.787109 0,9.470708 0,18.941408 0,28.412108 -0.66936,0.83153 -0.53548,-0.051 -0.52735,-0.6625 0,-9.8957 0,-19.7914 0,-29.687108 0.0599,0.05013 0.11979,0.100261 0.17969,0.150391 z m 391.11719,9.343747 c 0.24053,0.68515 -0.6109,0.91643 -0.97897,1.33793 -1.12835,1.01316 -2.48064,1.81122 -3.30146,3.12013 -0.90266,1.30277 -2.11195,2.42024 -2.6753,3.92864 -0.50832,1.21084 -1.20786,2.35788 -1.60436,3.60562 -0.29649,1.51252 -0.72305,3.01145 -0.94338,4.5319 0.0247,1.74809 -0.0326,3.50644 0.0383,5.24838 0.4528,1.61716 0.78004,3.2818 1.30724,4.87082 0.78639,1.48442 1.46102,3.04189 2.31582,4.48212 1.0219,1.19668 1.95102,2.48984 3.02903,3.62849 1.25968,0.94186 2.44943,1.99787 3.75156,2.87093 1.51174,0.68089 2.97872,1.49083 4.51661,2.09598 1.52048,0.30197 3.0266,0.73595 4.5555,0.96111 1.91569,-0.0185 3.84367,0.0516 5.75205,-0.0224 1.65512,-0.47872 3.3576,-0.83572 4.9863,-1.38052 1.20489,-0.55929 2.34368,-1.28076 3.59876,-1.71269 0.20284,0.64422 -0.68507,0.64877 -1.06818,0.94109 -1.62365,0.70933 -3.13761,1.72543 -4.91179,2.01504 -1.37289,0.29008 -2.71422,0.85024 -4.14031,0.6892 -1.73985,-0.0541 -3.49959,0.0607 -5.22689,-0.10268 -1.41562,-0.377 -2.90129,-0.55117 -4.27059,-1.06263 -1.34856,-0.683 -2.78829,-1.21671 -4.08052,-1.99163 -1.39141,-1.11455 -2.8687,-2.14079 -4.20759,-3.30925 -1.02244,-1.31892 -2.19082,-2.54336 -3.12087,-3.92208 -0.74455,-1.559 -1.60708,-3.07539 -2.27857,-4.66079 -0.33725,-1.63497 -0.85125,-3.2498 -1.07359,-4.89822 0.0423,-1.82683 -0.0845,-3.67188 0.0639,-5.48725 0.37273,-1.50992 0.58371,-3.07426 1.05988,-4.54957 0.70375,-1.42347 1.26116,-2.93594 2.06148,-4.30103 1.10457,-1.37882 2.11868,-2.84527 3.27615,-4.17238 1.19022,-0.90406 2.27648,-2.01288 3.56981,-2.75423 z m 12.25586,6.91407 c -1.23935,0.26292 -2.53557,0.35355 -3.74115,0.71882 -0.95316,0.53544 -2.0205,0.91034 -2.9085,1.53737 -0.90313,0.91402 -1.90014,1.75801 -2.74959,2.71165 -0.5205,1.11468 -1.21804,2.16981 -1.63522,3.31901 -0.18361,1.21676 -0.48234,2.43271 -0.5986,3.64985 0.23562,1.1778 0.27588,2.41835 0.62402,3.55997 0.59843,1.11151 1.10066,2.29415 1.75325,3.36533 1.6338,1.61624 3.38245,3.20337 5.49672,4.14627 1.27045,0.20547 2.53672,0.51797 3.80959,0.66197 2.20696,-0.16998 4.41647,-0.65357 6.34095,-1.78739 0.95723,-0.44084 1.51243,-1.42455 2.29322,-2.10362 0.63954,-0.6723 1.38434,-1.2686 1.68727,-2.18003 0.47619,-1.0213 1.1787,-1.97047 1.219,-3.13799 0.10184,-0.98682 0.48518,-1.97068 0.4121,-2.95887 -0.22106,-1.11225 -0.25703,-2.2832 -0.58816,-3.36114 -0.57227,-1.04251 -0.98621,-2.19698 -1.65157,-3.17367 -0.91405,-0.90306 -1.75794,-1.90025 -2.71169,-2.7495 -1.11663,-0.51714 -2.17122,-1.22187 -3.32338,-1.63032 -1.24284,-0.19244 -2.48585,-0.4057 -3.72826,-0.58771 z m 2.0664,0.95507 c 0.98,0.15275 1.96879,0.27907 2.81098,0.84646 0.88558,0.42517 1.78134,0.83587 2.42181,1.60937 0.837,0.90303 1.99993,1.56288 2.43215,2.76723 0.4974,1.0347 1.17008,2.01041 1.22953,3.19194 0.18463,1.12506 0.54578,2.24369 0.27122,3.38566 -0.14133,0.99698 -0.0587,2.05873 -0.65498,2.92519 -0.52732,0.94451 -0.84685,2.03949 -1.51337,2.8832 -0.93742,0.84581 -1.77328,1.83876 -2.77237,2.59457 -1.15835,0.48531 -2.26773,1.16484 -3.45592,1.52996 -1.4135,0.0266 -2.84283,0.25791 -4.24596,0.15463 -1.784,-0.31598 -3.43628,-1.1487 -4.99102,-2.03238 -0.88845,-0.97818 -1.91142,-1.86133 -2.7169,-2.89815 -0.53903,-1.20584 -1.3719,-2.31493 -1.44667,-3.67311 -0.15331,-1.14777 -0.59109,-2.29411 -0.23157,-3.44398 0.2549,-1.19304 0.20883,-2.48442 0.9199,-3.52732 0.53235,-0.9662 0.86775,-2.07817 1.80499,-2.743 0.88663,-0.80425 1.64615,-1.78679 2.80438,-2.21001 1.05401,-0.5128 2.04195,-1.22504 3.2533,-1.26558 1.14274,-0.14709 2.28637,-0.57582 3.42803,-0.2077 0.21749,0.0377 0.43498,0.0754 0.65247,0.11302 z m 47.23633,5.71485 c 0.11321,0.23691 -0.77424,0.58424 -1.03491,0.85517 -11.06823,7.40698 -22.26123,14.63055 -33.48193,21.80424 -0.68414,0.42223 -1.35867,0.88447 -2.06519,1.26051 -0.36086,-0.59604 0.60078,-0.76839 0.93275,-1.09606 11.56571,-7.45998 23.0533,-15.04463 34.72163,-22.34281 0.30724,-0.14535 0.59048,-0.44145 0.92765,-0.48105 z m -438.63672,7.79492 c 4.4043,0 8.8086,0 13.21289,0 -0.28512,0.66131 -0.93599,0.54013 -1.5375,0.52734 -8.51549,0 -17.03099,0 -25.54648,0 0.28512,-0.66131 0.93599,-0.54012 1.5375,-0.52734 4.1112,0 8.22239,0 12.33359,0 z m 58.21094,0 c 4.433594,0 8.867187,0 13.300781,0 0.831627,0.66916 -0.04683,0.53544 -0.660547,0.52734 -8.427604,0 -16.855208,0 -25.282812,0 -0.828956,-0.67038 0.0497,-0.53478 0.6625,-0.52734 3.993359,0 7.986719,0 11.980078,0 z m -13.564453,0.5293 c 0.536258,0.23896 0.217602,1.00736 0.323123,1.4789 0.07697,8.44899 -0.02522,16.89825 -0.05359,25.34727 -0.661197,-0.37934 -0.315759,-1.17673 -0.398437,-1.79649 0,-8.34323 0,-16.68645 0,-25.02968 h 0.1 z m -31.085937,13.16406 c 0,4.43359 0,8.86719 0,13.30078 -0.67038,0.82896 -0.53478,-0.0497 -0.52734,-0.6625 0,-8.42695 0,-16.85391 0,-25.28086 0.66936,-0.83153 0.53548,0.051 0.52734,0.6625 0,3.99336 0,7.98672 0,11.98008 z m 349.9043,8.04687 c -1.03159,0.10194 -2.01861,0.47518 -2.97657,0.83399 -1.16124,1.24385 -2.35865,2.58956 -2.83593,4.24844 0.0105,8.18801 -0.0208,16.38645 0.0156,24.56796 0.79327,1.66559 1.8541,3.35391 3.61865,4.11416 0.65527,0.31843 1.29953,0.72248 2.06025,0.57877 1.30912,0.0233 2.69417,-0.0923 3.86224,-0.69746 1.36889,-1.14933 2.44221,-2.61222 3.13074,-4.26304 0.0241,-8.14438 0.0202,-16.30962 0.002,-24.45508 -0.59816,-1.59703 -1.69521,-2.93909 -2.88086,-4.13086 -1.28559,-0.45205 -2.60659,-0.94935 -3.99609,-0.79688 z m -282.109379,-0.004 c -2.337104,0.13014 -4.397205,1.71853 -5.391924,3.79605 -0.6161,0.72092 -0.275717,1.69943 -0.369782,2.56094 -0.03894,7.62559 -0.110075,15.25804 -0.128919,22.87934 0.423868,0.88712 0.722424,1.86043 1.214439,2.7004 1.048411,1.14927 2.403975,2.06928 3.928431,2.40453 1.069639,-0.0596 2.153026,-0.0726 3.214552,-0.15962 0.857712,-0.58163 1.836021,-1.04057 2.622757,-1.69452 0.524689,-0.87966 1.106438,-1.74241 1.597946,-2.63165 -0.01303,-8.48707 0.02605,-16.98907 -0.01953,-25.4668 -0.850502,-1.60319 -1.989151,-3.18704 -3.734304,-3.88418 -0.916339,-0.40767 -1.934491,-0.57034 -2.933666,-0.50449 z m 283.132809,0.80078 c 0.76902,0.0865 1.61447,-0.0511 2.20661,0.55418 0.71009,0.49702 1.56988,0.85406 1.9298,1.70469 0.36347,0.69692 1.12344,1.2757 0.93391,2.13644 0,8.20873 0,16.41745 0,24.62617 -0.92053,1.70338 -2.32746,3.282 -4.27266,3.76701 -1.48337,0.47599 -3.07265,-0.024 -4.41419,-0.64529 -0.66055,-0.76663 -1.43697,-1.46814 -2.03128,-2.27082 -0.28099,-1.01494 -0.6554,-2.01695 -0.52406,-3.08801 0,-7.35195 0,-14.7039 0,-22.05586 0.29546,-0.87851 0.32621,-1.89679 1.0966,-2.52193 0.62139,-0.63036 1.03639,-1.55437 1.98091,-1.72618 0.7994,-0.28256 1.5694,-0.76186 2.44517,-0.52712 0.2164,0.0156 0.43279,0.0311 0.64919,0.0467 z m -282.666012,-0.0488 c 0.781828,-0.0251 1.565303,-0.0583 2.25586,0.37109 0.775362,0.17794 1.274195,0.74641 1.758381,1.33557 0.53428,0.59018 1.166705,1.1255 1.250403,1.96762 0.547127,1.30642 0.241718,2.73255 0.305169,4.1069 -0.04794,7.18362 -0.09598,14.36724 -0.144032,21.55085 -0.779337,1.48146 -2.024047,2.76779 -3.653131,3.31334 -1.599057,0.69802 -3.506025,0.40607 -4.926601,-0.65194 -0.697551,-0.51108 -1.513231,-0.94513 -1.799988,-1.81625 -0.3396,-0.69938 -0.906333,-1.34238 -0.731608,-2.17054 0,-8.00156 0,-16.00312 0,-24.00469 0.541034,-0.81118 0.91651,-1.7777 1.563933,-2.48925 0.914724,-0.61126 1.881308,-1.27173 2.954427,-1.5127 0.389062,0 0.778125,0 1.167187,0 z m -52.783203,5.16016 c 5.113932,0 10.227865,0 15.341797,0 0.410799,0.73546 -0.846478,0.26376 -1.269141,0.39648 -9.847786,0 -19.695573,0 -29.543361,0 0.0572,-0.71319 0.94301,-0.27889 1.43086,-0.39648 4.67995,0 9.359897,0 14.039845,0 z m 52.556641,31.11718 c -1.727261,0.0781 -3.329748,0.97027 -4.599518,2.07058 -0.456558,0.80119 -0.962554,1.58973 -1.390717,2.39817 0.01436,8.57665 -0.02866,17.17025 0.02148,25.73633 0.958822,1.56325 2.090486,3.20215 3.906422,3.82758 0.908114,0.53907 2.00055,0.21341 3.000546,0.32245 0.611511,0.0819 1.179691,4.6e-4 1.656144,-0.41877 0.742434,-0.49607 1.610035,-0.86616 2.278467,-1.43745 0.51657,-0.86544 1.091124,-1.71366 1.574436,-2.58873 -0.01306,-8.50138 0.02605,-17.01771 -0.01953,-25.50977 -0.940294,-1.75445 -2.277445,-3.46409 -4.244141,-4.0957 -0.699557,-0.23835 -1.444627,-0.34171 -2.183593,-0.30469 z m 282.619144,0.39844 c -1.01637,0.25858 -2.1045,0.3597 -3.0814,0.70332 -1.28556,0.88245 -2.39898,2.05979 -3.09337,3.45159 -0.24707,1.41494 -0.6529,2.81458 -0.52055,4.26501 0.0304,6.77971 -0.0852,13.56391 0.15758,20.34015 0.0783,0.78694 0.11422,1.60068 0.66354,2.22613 0.46193,0.66641 0.77542,1.48938 1.3242,2.06394 0.97616,0.45817 1.91024,1.09372 2.91171,1.4466 1.80295,0.0152 3.8186,0.0329 5.24167,-1.2609 0.67713,-0.62138 1.51938,-1.13747 1.76662,-2.08004 0.31743,-0.81537 0.94542,-1.56128 0.76867,-2.4851 -0.0104,-7.86614 0.0208,-15.74271 -0.0156,-23.60234 -0.48843,-0.87659 -0.86654,-1.83729 -1.41486,-2.66768 -0.801,-0.59507 -1.39875,-1.55444 -2.44987,-1.70702 -0.75332,-0.22262 -1.50409,-0.50129 -2.25831,-0.69366 z m -282.281254,0.37305 c 0.740269,-0.0532 1.455167,0.01 2.094548,0.41837 0.67518,0.27861 1.355438,0.55072 1.753006,1.20339 0.53817,0.63453 1.224752,1.18753 1.311231,2.07021 0.538324,1.29905 0.230355,2.71635 0.29627,4.0814 -0.04679,7.18297 -0.09369,14.36593 -0.140602,21.54889 -0.556971,0.76535 -1.025005,1.63054 -1.635776,2.33486 -0.901672,0.38733 -1.725855,1.04928 -2.680926,1.24859 -0.769141,-0.007 -1.584147,0.25258 -2.32459,0.0843 -1.23725,-0.53907 -2.490972,-1.2216 -3.408151,-2.20347 -0.322372,-0.73687 -0.897753,-1.41088 -1.061885,-2.18772 0,-8.20091 0,-16.40183 0,-24.60274 0.753187,-1.49976 1.800183,-2.96699 3.449219,-3.57617 0.752332,-0.29667 1.561016,-0.42582 2.347656,-0.41992 z m 282.566404,0.57226 c 0.7653,0.0861 1.61189,-0.0585 2.18718,0.56652 0.76591,0.55607 1.67224,0.97625 2.0674,1.89263 0.34956,0.62056 0.9869,1.15555 0.80402,1.93421 0,8.20743 0,16.41485 0,24.62227 -0.84792,1.47493 -1.8832,3.04067 -3.61307,3.56287 -1.06987,0.34688 -2.28919,0.61297 -3.37985,0.28409 -0.84292,-0.42925 -1.86356,-0.61513 -2.39903,-1.46831 -0.55266,-0.71517 -1.4373,-1.24881 -1.51752,-2.22137 -0.37003,-0.97417 -0.39633,-1.99275 -0.34518,-3.02131 0.0488,-7.48607 0.0963,-14.97215 0.14332,-22.45824 0.82451,-1.41358 1.88056,-2.80383 3.47663,-3.38251 0.64109,-0.33902 1.31543,-0.50861 2.03638,-0.34994 0.17991,0.013 0.35982,0.0261 0.53972,0.0391 z m -400.24023,32.55469 c 1.47916,0.0234 2.95833,0.0469 4.4375,0.0703 0.32031,1.97494 0.99366,3.90747 2.07017,5.59075 1.59277,1.6129 3.38022,3.26251 5.70278,3.65201 0.58593,0.1159 1.17987,0.18257 1.77002,0.27287 0.0466,3.04232 0.0935,6.08464 0.14062,9.12695 -1.63793,-0.24042 -3.30576,-0.39924 -4.91711,-0.75448 -1.40942,-0.63727 -2.91505,-1.10696 -4.26186,-1.85389 -1.35619,-1.0689 -2.81765,-2.03301 -4.10719,-3.16871 -1.02796,-1.42569 -2.17647,-2.7828 -3.13134,-4.24983 -0.51837,-1.4141 -1.25424,-2.76687 -1.62925,-4.2214 -0.24303,-1.50876 -0.52328,-3.01366 -0.48255,-4.53489 1.46941,0.0234 2.93881,0.0469 4.40821,0.0703 z m 515.82031,-0.0605 c 1.4987,0 2.9974,1e-5 4.49609,0 -0.22665,1.64151 -0.0984,3.35695 -0.74565,4.91146 -0.50797,1.33914 -0.70742,2.8266 -1.62555,3.9694 -0.81133,1.14401 -1.4472,2.43512 -2.37973,3.47863 -2.81024,2.88372 -6.43188,5.08001 -10.37016,5.92567 -1.14891,0.18582 -2.30615,0.31592 -3.45508,0.50195 0,-2.99804 0,-5.99609 0,-8.99414 1.49554,-0.36367 3.06091,-0.55111 4.41333,-1.34608 0.814,-0.28223 1.38767,-0.88782 1.94467,-1.51571 0.73638,-0.80617 1.64492,-1.49217 2.00133,-2.56631 0.41167,-0.87083 0.98881,-1.69102 0.96979,-2.69376 0.13276,-0.52909 0.0478,-1.30947 0.32752,-1.6711 1.47448,-1e-5 2.94896,0 4.42344,-1e-5 z m -444.955078,9.78907 c 18.652995,0 37.30599,0 55.958985,0 0,2.9987 0,5.99739 0,8.99609 -37.30599,0 -74.611977,0 -111.917967,0 0,-2.9987 0,-5.99739 0,-8.99609 18.65299,0 37.30599,0 55.958982,0 z m 139.171876,0 c 27.560546,0 55.121092,0 82.681642,0 0,2.9987 0,5.99739 0,8.99609 -55.121747,0 -110.243491,0 -165.365236,0 0,-2.9987 0,-5.99739 0,-8.99609 27.5611977,0 55.122396,0 82.683594,0 z m 132.158202,0 c 16.31576,0 32.63151,0 48.94727,0 0,2.9987 0,5.99739 0,8.99609 -32.63151,0 -65.26302,0 -97.89453,0 0,-2.9987 -10e-6,-5.99739 0,-8.99609 16.31575,0 32.63151,0 48.94726,0 z m 104.11328,0 c 18.21224,0 36.42448,0 54.63672,0 0,2.9987 0,5.99739 0,8.99609 -36.42383,0 -72.84766,0 -109.27148,0 0,-2.9987 0,-5.99739 0,-8.99609 18.21158,0 36.42317,0 54.63476,0 z" />
  </g>
</svg>
