<?xml version="1.0" encoding="UTF-8" standalone="no"?>
<!-- Created with Inkscape (http://www.inkscape.org/) -->

<svg
   width="499.73288mm"
   height="319.3511mm"
   viewBox="0 0 499.73288 319.3511"
   version="1.1"
   id="svg5"
   sodipodi:docname="ExplainTop.svg"
   inkscape:version="1.1 (c68e22c387, 2021-05-23)"
   xmlns:inkscape="http://www.inkscape.org/namespaces/inkscape"
   xmlns:sodipodi="http://sodipodi.sourceforge.net/DTD/sodipodi-0.dtd"
   xmlns="http://www.w3.org/2000/svg"
   xmlns:svg="http://www.w3.org/2000/svg">
  <sodipodi:namedview
     id="namedview7"
     pagecolor="#ffffff"
     bordercolor="#666666"
     borderopacity="1.0"
     inkscape:pageshadow="2"
     inkscape:pageopacity="0.0"
     inkscape:pagecheckerboard="0"
     inkscape:document-units="mm"
     showgrid="false"
     fit-margin-top="0"
     fit-margin-left="0"
     fit-margin-right="0"
     fit-margin-bottom="0"
     inkscape:zoom="0.67081229"
     inkscape:cx="901.14628"
     inkscape:cy="708.84211"
     inkscape:window-width="2560"
     inkscape:window-height="1417"
     inkscape:window-x="1912"
     inkscape:window-y="-3"
     inkscape:window-maximized="1"
     inkscape:current-layer="layer1" />
  <defs
     id="defs2">
    <rect
       x="134.1657"
       y="-229.57242"
       width="269.82214"
       height="96.897453"
       id="rect4479" />
    <rect
       x="134.1657"
       y="-229.57242"
       width="269.82214"
       height="96.897453"
       id="rect4479-6" />
    <rect
       x="134.1657"
       y="-229.57242"
       width="763.14343"
       height="101.11387"
       id="rect4479-5" />
    <rect
       x="134.1657"
       y="-229.57242"
       width="269.82214"
       height="96.897453"
       id="rect4479-58" />
    <rect
       x="134.1657"
       y="-229.57242"
       width="635.05096"
       height="105.84183"
       id="rect4479-8" />
    <rect
       x="134.1657"
       y="-229.57242"
       width="717.04114"
       height="102.86037"
       id="rect4479-8-6" />
  </defs>
  <g
     inkscape:label="Layer 1"
     inkscape:groupmode="layer"
     id="layer1"
     transform="translate(129.08362,58.743466)">
    <path
       id="path2519"
       style="color:#000000;fill:#000000;stroke-width:0.248245;-inkscape-stroke:none"
       d="m -110.63048,9.6356508 c -1.61267,0.274458 -3.29865,0.24531 -4.85911,0.7472392 -1.43762,0.597354 -2.96944,1.024793 -4.33552,1.757417 -1.33121,1.076375 -2.78333,2.028068 -4.02566,3.195562 -0.95395,1.310538 -2.14173,2.481012 -2.91322,3.903175 -0.56262,1.427426 -1.29816,2.805286 -1.73445,4.274695 -0.30545,2.102638 -0.69313,4.20944 -0.55722,6.342323 0.002,51.249103 -9.5e-4,102.498788 0.004,153.747508 0.28811,1.53872 0.26672,3.15225 0.78972,4.63662 0.63026,1.40985 1.10669,2.89998 1.86002,4.24607 1.07431,1.29343 2.00412,2.72201 3.18402,3.91848 1.34218,0.90209 2.53418,2.04579 3.99839,2.75477 1.66322,0.64063 3.23667,1.6217 5.06291,1.72943 2.09851,0.32757 4.20013,0.74668 6.33689,0.61922 153.013474,0.0121 306.02742,0.0288 459.04059,0.0378 1.91748,-0.29952 3.885,-0.36735 5.76854,-0.8309 2.46009,-0.83134 4.79325,-2.05338 6.88095,-3.56173 2.33567,-2.2258 4.42556,-4.7962 5.49757,-7.843 0.54323,-1.29405 0.94614,-2.63994 1.03776,-4.04223 0.41542,-2.51143 0.15793,-5.05938 0.22644,-7.58974 -0.002,-50.09013 9.5e-4,-100.18085 -0.004,-150.270613 -0.26807,-1.735527 -0.29507,-3.533555 -1.04092,-5.161403 -0.42326,-1.226754 -0.80947,-2.489603 -1.64773,-3.51853 -0.91938,-1.375928 -1.72318,-2.876176 -3.07514,-3.902748 -1.59801,-1.379922 -3.31647,-2.689533 -5.2564,-3.568413 -1.53242,-0.486853 -3.03129,-1.117979 -4.59339,-1.4869972 -155.21496,-0.04407 -310.430427,-0.09299 -465.64509,-0.134033 z m 53.894577,0.7500182 c 17.660863,0 35.321726,0 52.9825889,0 0,2.698736 -1e-6,5.397472 0,8.096208 -35.3217259,0 -70.6434529,0 -105.9651859,0 0,-2.698736 0,-5.397472 0,-8.096208 17.660872,0 35.321733,0 52.982597,0 z m 132.082965,0 c 26.114698,-10e-7 52.229388,0 78.344088,0 0,2.698736 0,5.397472 0,8.096208 -52.23001,0 -104.460022,0 -156.6900335,0 0,-2.698736 0,-5.397472 0,-8.096208 26.1153155,-10e-7 52.2306305,0 78.3459455,0 z m 224.236678,0 c 17.24255,-10e-7 34.48511,-10e-7 51.72767,0 0,2.698736 0,5.397472 0,8.096208 -34.48451,0 -68.969,0 -103.4535,0 0,-2.698736 0,-5.397472 0,-8.096208 17.24194,0 34.48389,-10e-7 51.72583,0 z m 54.26345,0.291674 c 2.20869,0.36609 4.47392,0.832932 6.43307,1.93228 2.02019,1.231968 4.02915,2.600928 5.5454,4.410942 1.5191,2.186191 2.73558,4.600728 3.5014,7.132755 0.16578,1.131675 0.22611,2.274325 0.35207,3.410296 -2.76626,0 -5.5325,0 -8.29875,0 -0.20478,-1.789701 -0.81015,-3.552219 -1.76089,-5.087883 -0.95758,-0.89004 -1.72922,-2.048584 -3.01231,-2.518008 -1.0116,-0.551199 -2.05554,-1.12269 -3.2495,-1.12564 -0.57631,-0.06457 -1.31404,0.0091 -1.03974,-0.783914 0,-2.514915 0,-5.02983 0,-7.544746 0.50975,0.05797 1.0195,0.115945 1.52925,0.173918 z M 200.7736,10.50886 c 15.4019,0 30.8038,0 46.20569,0 0.0438,2.657672 0.0878,5.315345 0.1316,7.973017 -30.89091,0 -61.78181,0 -92.67272,0 0.0433,-2.657672 0.0865,-5.315345 0.12976,-7.973017 15.40188,0 30.80378,0 46.20567,0 z m -311.49862,4.139592 c 0,1.350878 0,2.701755 0,4.052633 -1.22863,0.162959 -2.53127,0.175919 -3.59777,0.886638 -1.43259,0.756849 -2.76662,1.758418 -3.78517,3.000721 -0.45197,1.018597 -1.18914,1.945512 -1.42591,3.037205 -0.0876,0.645989 -0.17524,1.291978 -0.26287,1.937967 -2.79652,0 -5.59305,0 -8.38957,0 0.28035,-1.547311 0.31161,-3.160648 0.78211,-4.653057 0.78927,-1.657772 1.23459,-3.497159 2.52632,-4.875485 0.96055,-1.19478 1.78321,-2.515682 3.1284,-3.341785 1.20418,-0.883468 2.32238,-1.950087 3.79542,-2.383879 1.51261,-0.631979 3.02783,-1.335188 4.69338,-1.44847 0.8463,-0.132459 1.68279,-0.233263 2.53566,-0.228889 0,1.338801 0,2.6776 0,4.016401 z M -3.7533141,105.48033 c -1e-6,28.67339 0,57.34678 0,86.02017 -35.9396059,-0.0163 -71.8792129,-0.0326 -107.8188159,-0.0489 -1.48696,-0.34238 -2.92353,-0.94572 -4.14976,-1.84232 -0.86473,-0.89565 -1.90502,-1.67213 -2.31466,-2.89198 -0.41342,-0.89678 -1.01836,-1.75809 -0.84634,-2.784 0,-52.63774 0,-105.275459 0,-157.913192 0.68277,-1.247177 1.02748,-2.735832 2.18594,-3.669444 0.73301,-0.761238 1.42824,-1.568238 2.47682,-1.89409 0.95379,-0.405493 1.86154,-1.034592 2.95199,-0.86892 35.838277,-0.0431 71.676551,-0.0862 107.5148259,-0.129296 0,28.673995 0,57.347989 0,86.021982 z M 300.77562,19.523568 c 17.70535,0.02174 35.4107,0.04348 53.11605,0.06522 1.28078,0.642592 2.75175,1.033556 3.72603,2.137187 0.78059,0.629554 1.51411,1.328572 1.885,2.267695 0.56066,0.863447 0.75834,1.86147 0.87953,2.857803 0.41127,2.27064 0.13475,4.598723 0.2142,6.900698 0.002,49.764474 0.004,99.528949 0.006,149.293419 -0.33729,1.87229 -0.73482,3.91671 -2.06412,5.37889 -1.30988,1.25095 -2.85081,2.36316 -4.58154,2.95476 -35.36671,0.0428 -70.73342,0.0857 -106.10013,0.12851 0,-57.3492 0,-114.698389 0,-172.047587 17.63986,0.02114 35.27972,0.04227 52.91956,0.06341 z M 75.347062,19.465596 c 26.114698,0 52.229388,0 78.344088,0 0,9.40723 0,18.81446 0,28.22169 -39.37996,0 -78.759921,0 -118.139884,0 -0.492095,1.206416 -0.165249,2.531991 -0.27696,3.792477 -0.146348,34.916932 -0.108289,69.834317 -0.0605,104.751407 0.01613,5.90246 0.03493,11.8083 0.105501,17.70839 0.02768,0.58903 0.678927,0.78126 1.174357,0.62938 39.065832,0 78.131666,0 117.197496,0 0,5.64385 0,11.28771 0,16.93156 -52.23002,0 -104.460025,0 -156.6900367,0 0,-57.34497 0,-114.689933 0,-172.034904 26.1153147,0 52.2306307,0 78.3459457,0 z m 125.426538,0 c 15.44268,0 30.88535,0 46.32803,0 0,57.344971 0,114.689934 0,172.034904 -30.88535,0 -61.7707,0 -92.65605,0 0,-5.64265 0,-11.28529 0,-16.92794 13.43395,-0.0416 26.8679,-0.0841 40.30184,-0.125 0.025,-41.52034 0.14909,-83.041245 0.0298,-124.561237 -0.0482,-0.68045 0.0424,-1.422877 -0.20035,-2.063164 -0.43592,-0.340461 -1.03552,-0.0235 -1.54334,-0.135873 -12.86266,0 -25.72531,0 -38.58797,0 0,-9.40723 0,-18.81446 0,-28.22169 15.44268,0 30.88535,0 46.32802,0 z m -324.93195,9.081739 c 1.38096,0 2.76193,0 4.14288,0 0,51.37321 0,102.746415 0,154.119625 -2.7613,0 -5.52261,0 -8.28391,0 0,-51.37321 0,-102.746415 0,-154.119625 1.38035,0 2.76068,0 4.14103,0 z m 489.65752,0 c 1.38096,0 2.76193,0 4.14288,0 0,51.37321 0,102.746415 0,154.119625 -2.7613,0 -5.52261,0 -8.28391,0 0,-51.37321 0,-102.746415 0,-154.119625 1.38034,0 2.76068,0 4.14103,0 z M -78.325247,42.15998 c -0.0463,8.427706 -0.08733,16.855481 -0.131609,25.283213 -8.664531,0.04387 -17.329083,0.08458 -25.993604,0.130438 0.044,10.345052 0.0865,20.690134 0.13347,31.035164 8.661424,0.0464 17.322892,0.0878 25.984327,0.13225 0,8.425315 0,16.850645 0,25.275955 10.58799,-0.0429 21.176008,-0.0845 31.763974,-0.13043 0.04692,-8.38182 0.08857,-16.76369 0.133462,-25.145525 8.576788,-0.0445 17.153609,-0.0858 25.730375,-0.13225 0.04698,-10.34745 0.08958,-20.694942 0.133463,-31.04241 -8.621279,0 -17.242558,0 -25.863838,0 -0.04489,-8.465779 -0.08653,-16.931589 -0.133462,-25.397347 -10.584259,-0.04592 -21.168569,-0.08752 -31.752851,-0.130438 l -0.0028,0.09272 z m 1.792469,0.853281 c 9.463763,0.03568 18.972262,-0.0079 28.408885,0.02174 -0.604346,0.483964 -1.470196,0.124816 -2.185441,0.235513 -8.782546,1e-6 -17.565092,0 -26.347638,0 -0.317634,-0.27415 -0.312603,-0.254433 0.124194,-0.257253 z m 29.081757,0.452909 c 0.01358,8.140165 0.0014,16.285853 0.0056,24.428122 -0.363027,0.554978 -0.254757,-0.2568 -0.252579,-0.492203 0.0055,-7.907307 7.77e-4,-15.814776 0.0024,-23.722145 0.06856,-0.04282 0.170416,-0.232383 0.244681,-0.213774 z m -30.060478,0.08515 c 0.421464,0.514588 0.06016,1.236788 0.180199,1.839896 -0.03905,7.459962 -0.07812,14.919925 -0.117176,22.379886 -0.299251,-0.632989 -0.03069,-1.380867 -0.127901,-2.060556 0,-7.40211 0,-14.804219 0,-22.206328 z m 15.125701,0.456532 c 4.643368,0 9.286736,0 13.930104,0 0.04551,8.465779 0.08779,16.931589 0.135315,25.397348 8.578004,0.04586 17.156059,0.08656 25.734084,0.130438 -1e-6,9.078115 0,18.156227 0,27.234347 -8.62128,0 -17.242559,0 -25.863839,0 0,8.425925 0,16.851845 0,25.277775 -9.288589,0 -18.577178,0 -27.865768,0 -0.04551,-8.38365 -0.0878,-16.76733 -0.135316,-25.150955 -8.620027,-0.0828 -17.24009,-0.16283 -25.860132,-0.24458 -0.0433,-9.03886 -0.0865,-18.077724 -0.12976,-27.116587 8.663295,-0.04388 17.326622,-0.08457 25.989892,-0.130438 0.04753,-8.465759 0.08981,-16.931569 0.135316,-25.397348 4.643368,0 9.286736,0 13.930104,0 z m 177.406308,4.663156 c 26.28214,0 52.56429,0 78.84643,0 0,41.638077 0,83.276152 0,124.914222 -52.56429,0 -105.128566,0 -157.692851,0 0,-41.63807 0,-83.276145 0,-124.914222 26.282142,0 52.564285,0 78.846421,0 z m 197.26066,2.221067 c -1.27476,0.112664 -2.45234,0.624384 -3.71024,0.844284 -1.73951,0.397963 -3.24249,1.409194 -4.85675,2.122284 -2.43133,1.222188 -4.61734,2.84903 -6.94106,4.250374 -9.75113,6.197077 -19.52684,12.360942 -29.25459,18.59086 -1.38814,1.182683 -2.94426,2.192248 -4.20624,3.500368 -1.14339,1.5464 -2.59716,2.91327 -3.30914,4.72169 -0.67142,1.40755 -1.51112,2.77286 -1.72222,4.33881 -0.36073,1.73404 -1.00902,3.44678 -0.88089,5.23816 8.2e-4,1.43237 -0.13328,2.90126 0.3767,4.27475 0.46446,1.695295 0.72131,3.480805 1.67287,5.001925 0.82404,1.52602 1.42829,3.21279 2.67854,4.47033 1.04713,1.20427 1.97786,2.53889 3.3568,3.411 1.21745,0.90845 2.37736,1.96226 3.82712,2.48184 1.51646,0.71081 3.01816,1.50213 4.70095,1.75806 1.55447,0.35148 3.10653,0.85714 4.7232,0.70361 1.40756,-0.0378 2.8415,0.0937 4.23272,-0.10828 1.98597,-0.56925 4.11345,-0.78265 5.92471,-1.82221 1.88298,-0.85213 3.67482,-1.86348 5.37678,-3.02307 10.78882,-6.83871 21.58958,-13.662265 32.35965,-20.527445 1.49581,-1.21919 3.11053,-2.31692 4.52115,-3.62229 1.02882,-1.40266 2.26809,-2.67498 3.14052,-4.17669 0.77311,-1.82761 1.91578,-3.53697 2.21146,-5.523624 0.33661,-1.613089 0.8775,-3.216075 0.74573,-4.88173 0.009,-1.40122 0.10333,-2.82955 -0.36626,-4.178375 -0.45417,-1.687253 -0.62704,-3.490661 -1.57189,-5.007367 -0.81292,-1.530607 -1.43753,-3.198228 -2.69485,-4.449878 -1.05115,-1.214627 -1.98835,-2.557972 -3.37643,-3.435288 -1.26965,-0.943219 -2.45485,-2.046311 -3.97963,-2.584186 -1.52836,-0.674172 -3.0087,-1.53746 -4.70236,-1.735072 -1.61939,-0.326428 -3.23812,-0.779188 -4.90866,-0.643305 -1.12266,0.02205 -2.24556,-0.01848 -3.36769,0.01046 z m 3.91488,0.686611 c 1.40352,0.05214 2.78842,0.542913 4.1935,0.765703 1.22716,0.152538 2.31971,0.710899 3.43052,1.252461 1.36777,0.561952 2.67875,1.186506 3.80323,2.165482 1.24251,0.907578 2.52555,1.801 3.42682,3.057562 0.99377,1.176811 2.12154,2.284707 2.71577,3.721797 0.68841,1.272547 1.38801,2.56012 1.63572,3.995769 0.37629,1.568064 1.00102,3.122228 0.836,4.759089 -0.008,1.787773 0.15601,3.608753 -0.35094,5.349 -0.26505,1.430339 -0.60269,2.860776 -1.33867,4.138286 -0.64245,1.40027 -1.26832,2.83009 -2.33968,3.97764 -0.9874,1.2676 -1.91899,2.58233 -3.27961,3.49483 -0.63612,0.47579 -1.29878,1.09611 -1.91852,1.48272 -0.12657,-0.55882 0.66599,-0.72845 0.93747,-1.08748 1.20221,-0.91523 2.44251,-1.8219 3.29062,-3.08647 0.92103,-1.12922 1.91614,-2.23142 2.42723,-3.60934 0.67693,-1.42836 1.51041,-2.81904 1.7222,-4.404825 0.33902,-1.437401 0.73857,-2.879148 0.60205,-4.36917 -0.0391,-1.312694 0.0965,-2.651452 -0.10813,-3.94784 -0.47841,-1.556014 -0.68597,-3.210501 -1.39309,-4.687352 -0.80489,-1.519067 -1.4436,-3.15649 -2.6709,-4.413939 -0.99872,-1.195677 -1.89491,-2.520854 -3.23717,-3.374613 -1.21528,-0.920065 -2.35386,-1.990601 -3.83427,-2.490278 -1.53188,-0.669198 -3.01688,-1.51591 -4.71138,-1.715645 -1.33547,-0.244381 -2.66255,-0.629605 -4.01313,-0.735602 -2.02594,0.190361 -4.09638,0.137152 -6.054,0.751639 -1.38786,0.281336 -2.74414,0.692875 -3.97009,1.402978 -0.6847,0.336013 -1.3694,0.672028 -2.05411,1.008041 -0.44077,-0.28939 0.30541,-0.452301 0.52087,-0.563418 1.68882,-0.768647 3.32268,-1.7334 5.19091,-2.02358 1.47714,-0.401301 2.98321,-0.718593 4.52412,-0.691908 0.67202,-0.04355 1.34261,-0.11768 2.01666,-0.121537 z m -3.37733,1.266335 c 1.92476,0.08246 3.8915,-0.191358 5.78443,0.236804 1.52375,0.374907 3.12594,0.583142 4.49,1.401386 1.42734,0.632387 2.88055,1.206153 3.98919,2.281423 1.25773,0.954214 2.55718,1.850569 3.44552,3.169082 0.98133,1.12962 1.96478,2.288966 2.53641,3.680013 0.64459,1.122167 1.15836,2.31236 1.35499,3.59095 0.36917,1.619097 0.94701,3.226555 0.82012,4.907466 0.0807,1.379021 -0.0713,2.754589 -0.44556,4.084273 -0.24013,1.392047 -0.50992,2.808237 -1.27164,4.041057 -0.71921,1.38875 -1.24805,2.91247 -2.36318,4.05599 -0.99907,1.30384 -2.10304,2.54266 -3.49572,3.45958 -3.19749,2.31776 -6.58542,4.36878 -9.88762,6.53908 -9.02671,5.801895 -18.09577,11.543905 -27.1745,17.265655 -1.82379,0.82744 -3.52526,1.96737 -5.53146,2.30518 -1.57817,0.36108 -3.14777,0.96344 -4.79978,0.8048 -1.52351,0.0119 -3.03115,0.0519 -4.50049,-0.38208 -1.435,-0.25984 -2.85998,-0.6036 -4.14785,-1.29284 -1.39085,-0.56751 -2.74037,-1.24238 -3.88353,-2.21267 -1.18112,-0.84871 -2.38286,-1.70459 -3.24631,-2.87994 -0.97845,-1.09901 -1.99822,-2.19401 -2.56194,-3.56387 -0.68607,-1.27245 -1.39083,-2.55757 -1.65435,-3.98477 -0.46623,-1.511885 -0.80001,-3.013455 -0.77955,-4.592715 -0.14186,-1.29287 -0.22373,-2.61933 0.21418,-3.86944 0.34942,-1.63894 0.60044,-3.33081 1.46838,-4.80449 0.60955,-1.35854 1.23998,-2.72469 2.26984,-3.83563 0.92848,-1.24148 1.90959,-2.46576 3.23264,-3.32964 3.15874,-2.308827 6.52004,-4.321112 9.79082,-6.472968 9.54301,-6.114195 19.07549,-12.248807 28.77179,-18.128032 1.3014,-0.803249 2.72232,-1.414357 4.23775,-1.691251 1.1052,-0.280976 2.2093,-0.57516 3.33742,-0.782403 z m -9.79278,2.50006 c -0.42613,0.598259 -1.22492,0.778976 -1.77347,1.254276 -10.91332,6.902986 -21.77593,13.884544 -32.75984,20.679219 0.17594,-0.570368 0.88274,-0.599891 1.28162,-0.988877 11.05396,-6.981283 22.02444,-14.093621 33.18423,-20.910802 l 0.0693,-0.03925 z m 11.79286,6.045434 c -1.50288,0.329955 -3.13415,0.302893 -4.4739,1.131857 -1.03039,0.468018 -2.10081,0.921768 -2.85692,1.780933 -0.86148,0.697205 -1.61644,1.517918 -2.07989,2.523888 -0.52421,0.94877 -1.23851,1.855299 -1.27553,2.976567 -0.15053,1.032508 -0.48734,2.074029 -0.4378,3.115047 0.287,1.207425 0.3652,2.490602 0.81958,3.652901 0.78026,1.234361 1.29293,2.682317 2.48196,3.614347 0.73445,0.79398 1.57675,1.50043 2.61164,1.88655 1.14073,0.60907 2.32289,1.20098 3.64735,1.26878 1.9189,0.26162 3.89957,0.0978 5.7487,-0.44874 0.93015,-0.45223 1.82831,-0.98225 2.73444,-1.48353 0.8718,-0.59571 1.47903,-1.47674 2.26309,-2.17155 0.76351,-0.809912 1.03598,-1.914453 1.60437,-2.846614 0.52902,-1.055841 0.44085,-2.262033 0.72436,-3.383899 0.16845,-1.185435 -0.2884,-2.34622 -0.43224,-3.514894 -0.21205,-1.124203 -0.92692,-2.069762 -1.40691,-3.096089 -0.53058,-1.011431 -1.54063,-1.650649 -2.31521,-2.469261 -0.8565,-0.795314 -2.02547,-1.131946 -3.03811,-1.693881 -1.23174,-0.57963 -2.64779,-0.523109 -3.96569,-0.796334 -0.11735,-0.0098 -0.23639,-0.04758 -0.35329,-0.04608 z m 0.32624,1.154013 c 1.02331,0.06946 2.10838,-0.133725 3.08017,0.131531 1.90636,0.93937 3.87291,2.01182 5.18193,3.6997 0.63346,1.258944 1.67571,2.39817 1.71478,3.863735 0.19904,1.241761 0.51131,2.477827 0.15218,3.714327 -0.16309,1.055768 -0.28714,2.153846 -0.95029,3.040912 -0.57024,1.09762 -1.18619,2.207292 -2.24395,2.930212 -1.24735,0.97491 -2.61481,1.8574 -4.14396,2.34527 -1.82206,0.26421 -3.70734,0.7039 -5.46751,0.0357 -2.22742,-0.67599 -4.36978,-1.90024 -5.80681,-3.715862 -0.63298,-1.267893 -1.64483,-2.421585 -1.73067,-3.880965 -0.27635,-1.178698 -0.40264,-2.387499 -0.18418,-3.584476 -4.3e-4,-0.964694 0.35919,-1.858604 0.85276,-2.675942 0.56004,-1.081903 0.93578,-2.327279 1.98311,-3.075523 0.79871,-0.811334 1.68054,-1.489476 2.77113,-1.890187 0.93561,-0.400338 1.82148,-1.116398 2.90208,-0.942133 0.62974,0.0012 1.25949,0.0025 1.88923,0.0037 z m -361.359684,5.744703 c 8.069613,0.0339 16.140349,0.0047 24.210391,0.0145 -0.595878,0.500819 -1.475864,0.130535 -2.191002,0.244571 -7.608574,0 -15.217148,0 -22.825722,0 0.184341,-0.242276 0.523759,-0.262671 0.806333,-0.259064 z m -56.434066,0.0019 c 8.21681,0.02965 16.434438,0.0042 24.651557,0.01268 0.567771,0.354936 -0.264496,0.248867 -0.505466,0.246806 -8.090016,-0.0052 -16.180204,-7.42e-4 -24.270291,-0.0022 -0.31308,-0.274067 -0.31369,-0.254559 0.1242,-0.257252 z m 81.304353,0.559797 c 0.02569,7.660265 0.01703,15.370827 -0.0089,23.050167 -0.0042,1.77952 -0.0312,3.55884 -0.05408,5.33819 -0.380108,-0.70619 -0.07103,-1.56258 -0.166808,-2.33084 0.04015,-8.67678 0.08031,-17.353562 0.120467,-26.030344 0.03227,-0.01791 0.07146,-0.03469 0.109364,-0.02718 z m -82.025423,0.20109 c 0.42251,0.486256 0.0411,1.194598 0.17795,1.772869 0,8.676178 0,17.352348 0,26.028518 -0.39066,0.57396 -0.23452,-0.34239 -0.24838,-0.56704 0,-9.09321 0,-18.186424 0,-27.279637 z m 371.08203,8.721224 c -0.15889,0.560528 -0.86276,0.738972 -1.21607,1.177213 -1.17021,0.90668 -2.4066,1.83256 -3.19559,3.11456 -0.98103,1.17351 -1.96663,2.36899 -2.49478,3.81435 -0.65902,1.31071 -1.3505,2.62833 -1.54652,4.09661 -0.32642,1.41969 -0.73521,2.84052 -0.60078,4.31107 0.0395,1.25159 -0.0969,2.52963 0.10816,3.76486 0.55495,1.84123 0.77803,3.811935 1.80589,5.482535 0.72877,1.39982 1.34232,2.88801 2.47758,4.03297 0.9437,1.14189 1.83597,2.35296 3.11268,3.16809 1.18883,0.92748 2.35444,1.91468 3.79808,2.44481 1.38098,0.62639 2.71933,1.41544 4.25528,1.60869 1.49492,0.33453 2.99387,0.75714 4.54413,0.62539 1.40216,-0.0185 2.82541,0.0864 4.21444,-0.0749 2.015,-0.59647 4.17816,-0.86042 6.01145,-1.95057 0.58616,-0.27687 1.23864,-0.65387 1.82055,-0.79424 -0.26817,0.41729 -0.91233,0.43457 -1.31255,0.72378 -1.53786,0.73319 -3.06567,1.56771 -4.78222,1.81613 -1.26648,0.35922 -2.55051,0.6571 -3.88334,0.51984 -1.95512,-0.0499 -3.95012,0.156 -5.85077,-0.39748 -1.3752,-0.24234 -2.72746,-0.61156 -3.95607,-1.27542 -1.30739,-0.56057 -2.61574,-1.15214 -3.68324,-2.10039 -1.29446,-1.00128 -2.73665,-1.87427 -3.6909,-3.22042 -1.03833,-1.21084 -2.13868,-2.40802 -2.75239,-3.89578 -0.69228,-1.38837 -1.56011,-2.72945 -1.7849,-4.28543 -0.38523,-1.528445 -0.84179,-3.068325 -0.70158,-4.659485 -0.004,-1.68214 -0.12647,-3.39322 0.37279,-5.02592 0.27649,-1.41737 0.58893,-2.84057 1.31305,-4.11312 0.59816,-1.35521 1.22939,-2.71188 2.25283,-3.81778 0.98655,-1.2333 1.86709,-2.58558 3.19695,-3.49382 0.69235,-0.55849 1.42714,-1.214004 2.16784,-1.596178 z m 11.69646,6.074423 c -1.52508,0.33225 -3.1778,0.31268 -4.53722,1.15023 -1.00918,0.43115 -1.98422,0.95459 -2.7022,1.79301 -0.80619,0.79679 -1.80939,1.49707 -2.21076,2.57706 -0.56388,1.04617 -1.23172,2.08371 -1.30603,3.29634 -0.17046,1.09661 -0.55931,2.21284 -0.23409,3.31721 0.16096,1.15995 0.26422,2.36805 0.94968,3.36804 0.5604,1.049195 0.97948,2.225335 1.98659,2.955245 1.36113,1.24271 2.83478,2.46438 4.57921,3.14483 1.56712,0.20169 3.13213,0.80396 4.72213,0.47304 2.03591,-0.28192 4.13292,-0.8594 5.75364,-2.13992 0.86282,-0.9763 1.9127,-1.79568 2.68804,-2.8441 0.58046,-1.258005 1.48102,-2.448515 1.50514,-3.882335 0.23356,-1.08736 0.52298,-2.20662 0.19872,-3.31122 -0.14314,-1.09974 -0.25845,-2.23571 -0.89349,-3.18813 -0.48637,-1.03181 -0.97581,-2.1043 -1.89182,-2.84027 -0.84344,-0.80766 -1.55764,-1.82068 -2.70763,-2.22983 -1.08776,-0.56591 -2.17499,-1.2225 -3.44339,-1.26886 -0.81835,-0.12389 -1.63805,-0.25945 -2.45652,-0.37034 z m 0.93238,0.92756 c 1.32296,0.30165 2.75777,0.32333 3.91896,1.09794 1.00654,0.38377 1.80137,1.09027 2.53287,1.84299 0.80932,0.64905 1.56935,1.39198 1.9352,2.37106 0.53212,0.91791 0.97165,1.89689 1.05123,2.96047 0.24162,1.02134 0.37467,2.07426 0.14867,3.10954 -0.0551,0.92473 -0.19887,1.86512 -0.75247,2.64007 -0.51122,1.07271 -0.9433,2.245935 -1.95217,2.978795 -0.86239,0.83031 -1.67961,1.77469 -2.86561,2.15498 -1.0359,0.46833 -2.06389,1.11057 -3.25297,1.00767 -1.53191,0.11188 -3.13083,0.30083 -4.58288,-0.32332 -1.11703,-0.41698 -2.25006,-0.89492 -3.21844,-1.57369 -1.03036,-1.12345 -2.34762,-2.06002 -2.9231,-3.505615 -0.56245,-0.90251 -0.84913,-1.91937 -0.95374,-2.96278 -0.25123,-0.99257 -0.34253,-2.01233 -0.0387,-2.98993 0.12621,-1.096 0.31431,-2.2117 0.95158,-3.14644 0.41881,-0.88946 0.89687,-1.78317 1.72247,-2.3747 0.80894,-0.80841 1.66612,-1.59719 2.76381,-2.0074 0.96357,-0.54241 1.99313,-1.01134 3.12225,-1.05138 0.78894,-0.13726 1.58641,-0.34359 2.39304,-0.22826 z m 40.88574,8.6397 c -9.70056,6.27721 -19.47211,12.452185 -29.29122,18.549355 -0.67493,0.47002 -0.21701,-0.23343 0.17661,-0.31039 10.95072,-6.9202 21.84823,-13.930705 32.89789,-20.702795 -1.2611,0.82127 -2.52218,1.64255 -3.78328,2.46383 z m -423.43623,4.0798 c 8.152408,0.0339 16.305947,0.005 24.458781,0.0145 -0.596055,0.49797 -1.474994,0.12893 -2.189149,0.24276 -7.692604,0 -15.385211,0 -23.077822,0 0.18467,-0.24303 0.52559,-0.26016 0.80819,-0.25725 z m 55.557298,0.002 c 8.132778,0.0297 16.266371,0.004 24.399461,0.0127 0.567139,0.3534 -0.25935,0.24706 -0.503612,0.245 -8.006605,-0.005 -16.013375,-7.4e-4 -24.020044,-0.002 -0.315414,-0.23728 -0.266634,-0.27281 0.124195,-0.25544 z m -1.032478,0.529 c 0.344887,0.44316 0.04523,1.07792 0.16673,1.59569 0.05859,7.625305 -0.01535,15.250665 -0.04995,22.875915 -0.298982,-0.63241 -0.0309,-1.37951 -0.127901,-2.05875 0.0074,-7.46508 -0.01481,-14.97709 0.01112,-22.412855 z m -29.64897,0.17392 c 0.01363,8.056335 0.0013,16.119255 0.0056,24.178105 -0.362904,0.55465 -0.251514,-0.26374 -0.250674,-0.49582 0.0053,-7.82458 7.59e-4,-15.64931 0.0023,-23.473945 0.06897,-0.0391 0.170385,-0.23794 0.242827,-0.20834 z m 332.20564,19.228535 c -1.00782,0.1066 -1.98093,0.44704 -2.91022,0.81524 -1.11784,1.20327 -2.36028,2.48503 -2.72487,4.1164 0.0115,7.58179 -0.0319,15.1716 0.0278,22.74837 0.79566,1.6911 1.9866,3.35017 3.83208,4.03867 0.96137,0.59859 2.12403,0.37554 3.19284,0.32298 1.09825,-0.11388 2.2626,-0.40735 2.97272,-1.29838 0.96851,-0.98716 1.83822,-2.15821 2.26802,-3.45857 0.008,-7.54509 0.0302,-15.09704 -0.009,-22.63786 -0.59085,-1.50095 -1.63789,-2.79758 -2.80827,-3.90046 -1.23227,-0.42451 -2.51035,-0.88163 -3.84074,-0.74639 z m -267.736045,-0.004 c -2.321247,0.11332 -4.321829,1.71671 -5.316238,3.7048 -0.524496,0.86779 -0.160686,1.92089 -0.277935,2.8718 -0.04002,6.90379 -0.101619,13.814 -0.107622,20.71391 0.572285,1.11749 0.810748,2.48627 1.922513,3.24717 0.951038,0.76994 2.102106,1.497 3.363054,1.55058 0.961815,-0.0883 1.97996,0.0105 2.908039,-0.20589 0.8309359,-0.58938 1.8833639,-0.94483 2.5497281,-1.71702 0.4594398,-0.81776 1.1152722,-1.57734 1.4350934,-2.44222 -0.01324,-7.86148 0.036207,-15.73505 -0.035229,-23.58897 -0.926902,-1.78407 -2.3957206,-3.48435 -4.4747275,-3.94953 -0.638783,-0.1672 -1.3066,-0.22403 -1.966672,-0.18463 z m 267.496915,0.89504 c 0.93394,0.0968 1.89201,0.0584 2.79344,0.28986 0.81305,0.58164 1.85307,0.96461 2.29145,1.92033 0.39587,0.61951 1.02355,1.22588 0.81896,2.02433 0,7.54161 0,15.08321 0,22.62482 -1.00679,1.89798 -2.89334,3.59827 -5.19649,3.57482 -1.02898,-0.0656 -2.13082,-0.31335 -2.97553,-0.88634 -0.69819,-0.87109 -1.81616,-1.52636 -1.98546,-2.69679 -0.48572,-1.42663 -0.17439,-2.95354 -0.25998,-4.44687 0,-6.01029 0,-12.02058 0,-18.03087 0.25337,-0.8857 0.39596,-1.87987 1.19764,-2.47987 0.48287,-0.60348 0.99332,-1.28973 1.81885,-1.43033 0.49032,-0.17786 0.96884,-0.41613 1.49712,-0.46309 z m -266.495949,0.038 c 0.87846,-0.0172 1.74024,0.32154 2.4486589,0.80618 0.642711,0.7089 1.4711041,1.33128 1.8184196,2.241 0.3490561,0.99111 0.4193647,2.04759 0.3410698,3.09246 -0.041199,6.97329 -0.093217,13.94725 -0.1390227,20.92079 -0.9578719,1.87976 -2.9796046,3.31678 -5.1364356,3.33704 -1.582863,0.008 -3.040658,-0.92191 -4.142113,-1.98518 -0.373742,-0.6825 -0.874772,-1.34996 -1.034089,-2.12181 0.04513,-7.54667 0.0065,-15.10513 0.01938,-22.65633 0.660138,-0.94965 1.01279,-2.20876 2.167778,-2.71573 0.903484,-0.58656 1.937749,-1.06386 3.050588,-0.90755 0.201943,-9.2e-4 0.403843,-0.008 0.60577,-0.0109 z m -64.382475,4.80808 c 9.401416,-0.0252 18.808718,-0.004 28.2124,-0.0109 0.02245,0.34464 -0.687344,0.0324 -0.945356,0.0997 -9.104235,0.0507 -18.214583,0.007 -27.32117,0.0217 -0.839327,0.12183 -0.807696,-0.2328 0.0081,-0.11405 z m 63.298096,28.62932 c -1.580719,0.17865 -3.082669,0.96408 -4.205974,2.03825 -0.412585,0.76983 -1.008021,1.4879 -1.290097,2.29917 0.0151,7.94608 -0.0461,15.90871 0.04081,23.84442 0.934115,1.53545 2.126874,3.07904 3.922301,3.68124 1.005496,0.42261 2.137634,0.0997 3.173432,0.25363 0.93761,-7.7e-4 1.5797519,-0.7809 2.3906509,-1.12262 0.6658964,-0.32135 1.2149696,-0.79732 1.5157145,-1.47236 0.322919,-0.59141 0.8241764,-1.13595 1.013209,-1.77143 -0.01323,-7.87545 0.036207,-15.76233 -0.035229,-23.63063 -1.0202795,-1.91674 -2.6903395,-3.75297 -4.9922264,-4.06934 -0.504012,-0.0831 -1.023562,-0.0975 -1.532586,-0.0504 z m 268.510858,0.34965 c -1.02946,0.28964 -2.17406,0.28464 -3.12459,0.78164 -1.19932,0.86656 -2.34127,1.97183 -2.86878,3.35173 -0.31656,1.43334 -0.57754,2.88689 -0.45892,4.35813 0.036,6.22875 -0.10636,12.46519 0.18856,18.68802 0.007,0.83993 0.42194,1.57201 0.91598,2.22879 0.41842,0.72041 0.79209,1.57814 1.68866,1.81888 0.94287,0.44893 1.85758,1.19625 2.97211,1.0132 1.63704,0.0292 3.4075,-0.28666 4.575,-1.50344 0.70717,-0.50594 1.2674,-1.20163 1.517,-2.033 0.41171,-0.68938 0.7097,-1.46502 0.57487,-2.27144 -0.0109,-7.22135 0.0308,-14.45298 -0.0297,-21.66791 -0.63099,-1.02883 -0.93756,-2.30873 -1.98233,-3.03257 -0.58334,-0.63899 -1.3473,-1.07696 -2.21048,-1.22596 -0.58357,-0.1708 -1.16501,-0.3883 -1.75737,-0.50607 z m -267.357895,0.5761 c 0.927006,0.0202 1.753928,0.51464 2.5394869,0.94567 0.5774063,0.60645 1.2291292,1.19411 1.602414,1.95137 0.3684018,1.01396 0.4916292,2.05581 0.3971376,3.12599 -0.042689,7.00838 -0.09241,14.01777 -0.1384969,21.02653 -0.5780993,0.70495 -0.938325,1.64021 -1.6770497,2.18381 -0.9716639,0.47921 -1.9099389,1.15901 -3.0509749,1.11011 -0.780302,0.16465 -1.583413,0.0783 -2.27132,-0.36631 -1.072853,-0.55792 -2.213946,-1.18632 -2.712437,-2.33652 -0.458121,-0.63729 -0.690499,-1.384 -0.58148,-2.16359 0,-7.28339 0,-14.56678 0,-21.85016 0.795421,-1.63884 2.174077,-3.19227 4.098104,-3.48884 0.587223,-0.13296 1.195399,-0.11866 1.794616,-0.13806 z m 266.636835,0.45291 c 0.97325,0.19518 2.06111,-0.0864 2.91207,0.48913 0.79795,0.59698 1.78114,1.07322 2.17616,2.04354 0.3944,0.48007 0.75901,1.05754 0.60615,1.69642 0,7.54039 0,15.08079 0,22.62119 -0.8336,1.46331 -1.97433,2.97054 -3.72211,3.33522 -1.15694,0.35967 -2.46141,0.42399 -3.53823,-0.18969 -0.76224,-0.22029 -1.31032,-0.77373 -1.77682,-1.36904 -0.54096,-0.49384 -1.04403,-1.07312 -1.13262,-1.8148 -0.50876,-1.61227 -0.15899,-3.32887 -0.24475,-4.99836 0.0404,-6.12867 0.0809,-12.25733 0.12126,-18.386 0.79866,-1.39686 1.95393,-2.68494 3.54662,-3.20579 0.3313,-0.14178 0.6901,-0.22112 1.05227,-0.22182 z m -378.8358,30.28695 c 1.36922,0.0212 2.73843,0.0423 4.10766,0.0634 0.34696,1.86359 0.96068,3.74802 2.11619,5.28306 1.60036,1.61205 3.52708,3.1688 5.90852,3.38134 0.57092,0.0761 1.26519,0.0289 1.02389,0.79663 0.0399,2.52279 0.0797,5.04558 0.1195,7.56837 -1.61529,-0.26628 -3.2974,-0.30835 -4.85393,-0.82037 -1.6418,-0.70495 -3.4358,-1.18502 -4.7893,-2.39509 -1.25701,-0.95807 -2.7019,-1.76478 -3.54556,-3.13195 -0.92703,-1.26368 -2.09189,-2.41546 -2.58608,-3.92103 -0.64507,-1.38072 -1.22312,-2.79925 -1.34339,-4.33393 -0.13439,-0.85062 -0.22774,-1.68979 -0.21327,-2.55383 1.35192,0.0212 2.70384,0.0423 4.05577,0.0634 z m 489.54814,-0.0561 c 1.37541,0 2.75081,0 4.12621,0 -0.18149,1.64487 -0.14388,3.32634 -0.85638,4.86787 -0.37265,1.26222 -0.76359,2.55775 -1.64047,3.58342 -0.89934,1.4242 -1.77118,2.85009 -3.13478,3.89382 -2.91682,2.52145 -6.59912,4.30938 -10.51915,4.64454 -0.52153,0.005 -1.47366,0.49528 -1.21226,-0.38454 0,-2.51564 0,-5.03128 0,-7.54692 1.54006,-0.31401 3.10126,-0.62996 4.48408,-1.39187 1.10354,-0.60522 1.82863,-1.67496 2.72664,-2.51813 0.66263,-0.79244 1.0027,-1.78686 1.45689,-2.69886 0.30718,-0.78502 0.1334,-1.67215 0.44303,-2.44933 1.3754,0 2.7508,0 4.12619,0 z m -422.290673,9.07993 c 17.660863,0 35.321726,0 52.9825889,0 -1e-6,2.69934 0,5.39867 0,8.09802 -35.3217259,0 -70.6434529,0 -105.9651859,0 0,-2.69935 0,-5.39868 0,-8.09802 17.660872,0 35.321733,0 52.982597,0 z m 132.082965,0 c 26.114698,0 52.229388,0 78.344088,0 0,2.69934 0,5.39867 0,8.09802 -52.23001,0 -104.460022,0 -156.6900335,0 0,-2.69935 0,-5.39868 0,-8.09802 26.1153155,0 52.2306305,0 78.3459455,0 z m 125.426538,0 c 15.44268,0 30.88535,0 46.32803,0 0,2.69934 0,5.39867 0,8.09802 -30.88535,0 -61.7707,0 -92.65605,0 0,-2.69935 0,-5.39868 0,-8.09802 15.44268,0 30.88535,0 46.32802,0 z m 98.81014,0 c 17.24255,0 34.48511,0 51.72767,0 0,2.69934 0,5.39867 0,8.09802 -34.48451,0 -68.969,0 -103.4535,0 0,-2.69935 0,-5.39868 0,-8.09802 17.24194,0 34.48389,0 51.72583,0 z" />
    <path
       style="fill:none;stroke:#000000;stroke-width:1;stroke-linecap:butt;stroke-linejoin:miter;stroke-miterlimit:4;stroke-dasharray:none;stroke-opacity:1"
       d="M 116.89503,65.643591 V -35.722942"
       id="path2795" />
    <path
       style="fill:none;stroke:#000000;stroke-width:1;stroke-linecap:butt;stroke-linejoin:miter;stroke-miterlimit:4;stroke-dasharray:none;stroke-opacity:1"
       d="M -12.334621,237.02008 V 135.65355"
       id="path2795-6" />
    <path
       style="fill:none;stroke:#000000;stroke-width:1;stroke-linecap:butt;stroke-linejoin:miter;stroke-miterlimit:4;stroke-dasharray:none;stroke-opacity:1"
       d="M 296.88054,84.421194 V -16.945344"
       id="path2795-3" />
    <path
       style="fill:none;stroke:#000000;stroke-width:1;stroke-linecap:butt;stroke-linejoin:miter;stroke-miterlimit:4;stroke-dasharray:none;stroke-opacity:1"
       d="M -62.147932,80.957393 V -20.40914"
       id="path2795-1" />
    <text
       xml:space="preserve"
       transform="matrix(0.26458333,0,0,0.26458333,-122.39005,16.60809)"
       id="text4477"
       style="font-size:74.6667px;line-height:1.25;font-family:'Kode Mono';-inkscape-font-specification:'Kode Mono';white-space:pre;shape-inside:url(#rect4479)"><tspan
         x="134.16602"
         y="-163.07223"
         id="tspan59154"><tspan
           style="font-weight:600;-inkscape-font-specification:'Kode Mono Semi-Bold'"
           id="tspan59152">DPad</tspan></tspan></text>
    <text
       xml:space="preserve"
       transform="matrix(0.26458333,0,0,0.26458333,-122.95253,299.3286)"
       id="text4477-8"
       style="font-size:74.6667px;line-height:1.25;font-family:'Kode Mono';-inkscape-font-specification:'Kode Mono';white-space:pre;shape-inside:url(#rect4479-8)"><tspan
         x="134.16602"
         y="-163.07223"
         id="tspan59158"><tspan
           style="font-weight:600;-inkscape-font-specification:'Kode Mono Semi-Bold'"
           id="tspan59156">Start, Select</tspan></tspan></text>
    <path
       style="fill:none;stroke:#000000;stroke-width:1;stroke-linecap:butt;stroke-linejoin:miter;stroke-miterlimit:4;stroke-dasharray:none;stroke-opacity:1"
       d="M 255.73098,235.8757 V 134.50917"
       id="path2795-6-8" />
    <text
       xml:space="preserve"
       transform="matrix(0.26458333,0,0,0.26458333,134.06925,298.57864)"
       id="text4477-8-1"
       style="font-size:74.6667px;line-height:1.25;font-family:'Kode Mono';-inkscape-font-specification:'Kode Mono';white-space:pre;shape-inside:url(#rect4479-8-6)"><tspan
         x="134.16602"
         y="-163.07223"
         id="tspan59162"><tspan
           style="font-weight:600;-inkscape-font-specification:'Kode Mono Semi-Bold'"
           id="tspan59160">System, Options</tspan></tspan></text>
    <text
       xml:space="preserve"
       transform="matrix(0.34759309,0,0,0.34759309,233.85654,36.349116)"
       id="text4477-5"
       style="font-size:74.6667px;line-height:1.25;font-family:'Kode Mono';-inkscape-font-specification:'Kode Mono';white-space:pre;shape-inside:url(#rect4479-58)"><tspan
         x="134.16602"
         y="-163.07223"
         id="tspan59164">AB</tspan></text>
    <text
       xml:space="preserve"
       transform="matrix(0.26458333,0,0,0.26458333,-14.114949,0.34546923)"
       id="text4477-09"
       style="font-size:74.6667px;line-height:1.25;font-family:'Kode Mono';-inkscape-font-specification:'Kode Mono';white-space:pre;shape-inside:url(#rect4479-5)"><tspan
         x="134.16602"
         y="-163.07223"
         id="tspan59168"><tspan
           style="font-weight:600;-inkscape-font-specification:'Kode Mono Semi-Bold'"
           id="tspan59166">3.2&quot; TFT Display</tspan></tspan></text>
    <text
       xml:space="preserve"
       transform="matrix(0.26458333,0,0,0.26458333,54.773022,2.855557)"
       id="text4477-0"
       style="font-size:74.6667px;line-height:1.25;font-family:'Kode Mono';-inkscape-font-specification:'Kode Mono';white-space:pre;shape-inside:url(#rect4479-6)" />
  </g>
</svg>
