<?xml version="1.0" encoding="UTF-8" standalone="no"?>
<!-- Created with Inkscape (http://www.inkscape.org/) -->

<svg
   width="498.22031mm"
   height="128.64084mm"
   viewBox="0 0 498.22031 128.64084"
   version="1.1"
   id="svg5"
   inkscape:version="1.1 (c68e22c387, 2021-05-23)"
   sodipodi:docname="ExplainSide.svg"
   xmlns:inkscape="http://www.inkscape.org/namespaces/inkscape"
   xmlns:sodipodi="http://sodipodi.sourceforge.net/DTD/sodipodi-0.dtd"
   xmlns="http://www.w3.org/2000/svg"
   xmlns:svg="http://www.w3.org/2000/svg">
  <sodipodi:namedview
     id="namedview7"
     pagecolor="#ffffff"
     bordercolor="#666666"
     borderopacity="1.0"
     inkscape:pageshadow="2"
     inkscape:pageopacity="0.0"
     inkscape:pagecheckerboard="0"
     inkscape:document-units="mm"
     showgrid="false"
     fit-margin-top="0"
     fit-margin-left="0"
     fit-margin-right="0"
     fit-margin-bottom="0"
     inkscape:zoom="0.94867184"
     inkscape:cx="885.97549"
     inkscape:cy="270.37801"
     inkscape:window-width="2560"
     inkscape:window-height="1417"
     inkscape:window-x="1912"
     inkscape:window-y="-3"
     inkscape:window-maximized="1"
     inkscape:current-layer="layer1" />
  <defs
     id="defs2">
    <rect
       x="400.26099"
       y="773.68884"
       width="618.65295"
       height="117.76767"
       id="rect61962" />
    <rect
       x="400.26099"
       y="773.68884"
       width="618.65295"
       height="117.76767"
       id="rect61962-3" />
    <rect
       x="400.26099"
       y="773.68884"
       width="618.65295"
       height="117.76767"
       id="rect61962-3-0" />
    <rect
       x="400.26099"
       y="773.68884"
       width="618.65295"
       height="117.76767"
       id="rect61962-3-0-2" />
    <rect
       x="400.26099"
       y="773.68884"
       width="618.65295"
       height="117.76767"
       id="rect61962-3-6" />
  </defs>
  <g
     inkscape:label="Layer 1"
     inkscape:groupmode="layer"
     id="layer1"
     transform="translate(127.36564,-95.069886)">
    <path
       id="path836"
       style="fill:#000000;stroke-width:0.264583"
       d="m 123.00163,119.98667 c -41.825524,0.0221 -83.651045,0.0444 -125.4765662,0.0664 -0.047932,3.04037 -0.096395,6.08073 -0.1445313,9.12109 -39.2180985,0.0462 -78.4361975,0.0925 -117.6542925,0.13868 -2.21369,0.92235 -4.46649,2.15594 -5.70833,4.29846 -0.50236,0.86455 -1.05713,1.74908 -1.37957,2.68239 0.0104,17.73252 -0.0302,35.47366 0.0293,53.20079 1.20673,2.66675 3.12726,5.22866 5.93945,6.31445 1.32511,0.41907 2.74397,0.17166 4.11031,0.29997 10.84404,0.20304 21.691079,0.13729 32.536545,0.17707 70.632521,0.0855 141.265118,0.0208 211.897675,0.0202 78.96042,-0.0166 157.92083,-0.0333 236.88125,-0.05 2.18351,-0.99798 4.37675,-2.34689 5.51099,-4.54972 0.45499,-0.87201 1.00748,-1.74184 1.30738,-2.66746 -0.009,-17.47362 0.0261,-34.95412 -0.0254,-52.42344 -0.91351,-2.35306 -2.39538,-4.53388 -4.5283,-5.93666 -0.77857,-0.49533 -1.56881,-1.06439 -2.42717,-1.36619 -38.46341,-0.0462 -76.92682,-0.0924 -115.39023,-0.13856 0,-3.08463 0,-6.16927 0,-9.2539 -41.82618,0.022 -83.65235,0.0443 -125.47852,0.0664 z m 31.55078,4.96289 c 0,1.41081 0,2.82162 0,4.23243 -52.12565,0 -104.251304,0 -156.3769556,0 0.046224,-2.77735 0.092448,-5.55469 0.1386719,-8.33203 52.0794267,-0.0449 104.1588537,-0.0898 156.2382837,-0.13477 0,1.41146 0,2.82292 0,4.23437 z m 46.96289,-4.23242 c 15.38998,0 30.77995,0 46.16992,0 0,2.82162 0,5.64323 0,8.46485 -30.77929,0 -61.55859,0 -92.33789,0 0,-2.82162 0,-5.64323 0,-8.46485 15.38933,0 30.77865,0 46.16797,0 z m 156.5625,9.31055 c 1.90922,0.0896 3.85119,-0.0318 5.73952,0.19963 1.91807,0.95125 4.02811,2.04115 4.90082,4.13041 0.63503,1.1749 1.28646,2.47109 1.20927,3.82035 -5.73372,0 -11.46745,0 -17.20117,0 0,-2.75195 0,-5.50391 0,-8.25586 1.78385,0.0352 3.56771,0.0703 5.35156,0.10547 z m -467.31641,4.02344 c 0,1.37565 10e-6,2.7513 0,4.12695 -5.81054,0 -11.62109,0 -17.43164,0 0.25312,-2.97033 2.14829,-5.65614 4.72286,-7.12732 1.17404,-0.74821 2.59111,-0.98894 3.95956,-0.93691 2.9155,-0.0986 5.83275,-0.12815 8.74922,-0.18577 0,1.37435 10e-6,2.7487 0,4.12305 z m 53.712893,-4.07422 c 17.63802,0 35.276041,0 52.914062,0 0,2.73372 0,5.46745 0,8.20117 -35.276693,0 -70.553385,0 -105.830075,0 0,-2.73372 0,-5.46745 0,-8.20117 17.638669,0 35.277341,0 52.916013,0 z m 131.894531,0 c 26.061196,0 52.122396,0 78.183596,0 0,6.79036 0,13.58073 0,20.37109 -87.664716,0 -175.329429,0 -262.99414,0 0,-3.70312 0,-7.40625 0,-11.10937 35.542315,0 71.084632,0 106.62695,0 0,-3.08724 0,-6.17448 0,-9.26172 26.061198,0 52.122396,0 78.183594,0 z m 125.140626,0 c 15.38867,0 30.77735,0 46.16602,0 0.0488,3.04297 0.0979,6.08593 0.14648,9.1289 34.61459,0.0439 69.22917,0.0886 103.84375,0.13282 0,3.70312 0,7.40625 0,11.10937 -65.43945,0 -130.8789,0 -196.31836,0 0,-6.79036 0,-13.58073 0,-20.37109 15.38737,0 30.77474,0 46.16211,0 z m 98.56445,0 c 17.19727,0 34.39454,0 51.5918,0 0,2.73372 0,5.46745 0,8.20117 -34.39518,0 -68.79036,0 -103.18554,0 -1e-5,-2.73372 0,-5.46745 0,-8.20117 17.19791,0 34.39583,0 51.59374,0 z m -418.04296,9.26172 c 2.91015,0 5.82031,0 8.73046,0 0,3.70312 10e-6,7.40625 0,11.10937 -5.81966,0 -11.63932,0 -17.45898,0 0,-3.70312 0,-7.40625 0,-11.10937 2.90951,0 5.81901,0 8.72852,0 z m 479.42578,0 c 2.91015,0 5.82031,0 8.73047,0 0,3.70312 0,7.40625 0,11.10937 -5.82032,0 -11.64063,0 -17.46094,0 0,-3.70312 0,-7.40625 0,-11.10937 2.91016,0 5.82031,0 8.73047,0 z m -479.42578,11.90625 c 2.91015,0 5.82031,0 8.73046,0 0,11.72916 10e-6,23.45833 0,35.1875 -5.81966,0 -11.63932,0 -17.45898,0 0,-11.72917 0,-23.45834 0,-35.1875 2.90951,0 5.81901,0 8.72852,0 z m 239.58007,0 c 76.6849,0 153.3698,0 230.05469,0 0,11.72916 0,23.45833 0,35.1875 -153.36914,0 -306.738282,0 -460.10742,0 0,-11.72917 0,-23.45834 0,-35.1875 76.684242,0 153.368487,0 230.05273,0 z m 239.84571,0 c 2.91015,0 5.82031,0 8.73047,0 0,11.72916 0,23.45833 0,35.1875 -5.82032,0 -11.64063,0 -17.46094,0 0,-11.72917 0,-23.45834 0,-35.1875 2.91016,0 5.82031,0 8.73047,0 z m -166.55469,1.05468 c -0.0482,5.55857 -0.0958,11.11719 -0.14063,16.67579 9.04297,-0.0459 18.08597,-0.0915 27.12891,-0.14063 0,-5.55534 0,-11.11068 0,-16.66602 -8.99479,0 -17.98958,1e-5 -26.98437,0 l -0.003,0.1 z m 13.36133,0.92969 c 4.04687,0 8.09375,0 12.14062,0 -0.62169,0.50871 -1.14341,1.41682 -2.07304,1.1875 -6.9737,0 -13.9474,0 -20.9211,0 -0.33528,-0.37131 -1.15132,-0.92968 -1.19492,-1.1875 4.01615,0 8.03229,0 12.04844,0 z m -12.16992,0.84961 c 0.38387,0.4283 0.98751,0.85958 0.79101,1.51211 0,3.5793 0,7.15859 0,10.73789 -0.4069,0.44401 -0.8138,0.88802 -1.2207,1.33203 -0.11973,-4.67324 0.002,-9.34782 0.0273,-14.02148 0.13412,0.14648 0.26823,0.29297 0.40235,0.43945 z m 24.73632,6.55664 c 0,2.32682 0,4.65365 0,6.98047 -0.50844,-0.62262 -1.42007,-1.14173 -1.18945,-2.07305 0,-3.53359 0,-7.06718 0,-10.60078 0.37203,-0.33553 0.93099,-1.15089 1.18945,-1.19492 0,2.29609 0,4.59219 0,6.88828 z m -12.5664,-5.29101 c 3.48437,0 6.96875,0 10.45312,0 0.0449,3.48307 0.0899,6.96614 0.13477,10.44921 -7.05925,0 -14.11849,1e-5 -21.17774,0 0.0449,-3.48307 0.0899,-6.96614 0.13477,-10.44921 3.48503,0 6.97005,0 10.45508,0 z m -183.357427,7.93554 c 0,7.45378 0,14.90756 0,22.36133 56.046875,-0.0447 112.093757,-0.0901 168.140627,-0.13476 0.0495,-7.45311 0.0964,-14.90625 0.14258,-22.35938 -56.0944,0 -112.188806,0 -168.283207,0 v 0.1 z m 84.140627,0.66407 c 27.7819,0 55.5638,0 83.3457,0 -0.0456,6.92252 -0.0911,13.84505 -0.13671,20.76757 -55.51823,0.0443 -111.036466,0.0885 -166.554695,0.13282 0,-6.9668 0,-13.9336 0,-20.90039 27.781901,0 55.563802,0 83.345705,0 z m 64.06836,1.875 c -3.04394,0.11909 -6.36907,-0.192 -9.04554,1.55505 -3.18035,1.89153 -4.5954,6.20895 -3.10916,9.60849 1.00738,2.48591 3.25528,4.60771 5.96392,5.00254 5.58545,0.25227 11.18016,0.0905 16.76695,0.0742 0.85005,-0.2169 1.54024,-0.81829 2.30371,-1.22654 2.60122,-1.75068 4.23037,-5.02549 3.57982,-8.16074 -0.67209,-3.71296 -4.17855,-6.63875 -7.94407,-6.6928 -2.83279,-0.22639 -5.67688,-0.15767 -8.51563,-0.16015 z m -72.4336,0.0137 c -2.834549,0.12183 -6.002186,0.0395 -8.324461,1.94145 -2.5208,1.98738 -3.816023,5.54244 -2.74809,8.63454 0.833067,2.68639 3.146602,4.85645 5.865524,5.54901 1.679624,0.19767 3.386625,0.0836 5.077217,0.1501 4.06119,0.0187 8.13087,0.002 12.18646,-0.07 1.97287,-0.91601 3.81579,-2.26113 4.96875,-4.13672 1.02823,1.97476 2.96494,3.29911 4.96289,4.16601 5.86025,-0.0103 11.72915,0.0301 17.58398,-0.0293 2.23438,-1.00133 4.34554,-2.60716 5.25533,-4.95663 1.40106,-3.36388 0.16252,-7.63793 -2.94077,-9.60709 -2.20136,-1.52234 -4.97413,-1.67536 -7.56409,-1.62056 -3.88323,-0.0193 -7.78079,-0.0446 -11.65032,0.29578 -2.18864,0.40098 -4.07575,1.8895 -5.35601,3.63654 -0.16743,0.70347 -0.40996,0.47177 -0.66344,-0.0263 -1.47345,-2.13304 -3.89847,-3.74313 -6.54773,-3.76413 -2.93096,-0.17414 -5.87459,-0.13857 -8.81108,-0.17154 -0.43138,0.003 -0.86277,0.006 -1.29416,0.009 z m 23.7168,1.0039 c -0.0924,0.57495 0.10575,1.58495 -0.73242,1.62305 -2.77158,0.50912 -4.94592,3.31514 -4.52343,6.14444 0.1249,1.91202 1.31056,3.65099 2.98653,4.55088 0.63548,0.42441 1.41006,0.64734 2.14237,0.7207 0.22635,0.42604 0.11702,1.00027 0.0234,1.42578 -0.75944,-0.0298 -1.5187,-0.33923 -2.23611,-0.60328 -2.09865,-0.85212 -3.94432,-2.77291 -3.98147,-5.14479 -0.13609,-1.70061 -0.18482,-3.56881 0.56061,-5.15808 1.2133,-1.99686 3.45683,-3.3666 5.76048,-3.5587 z m -27.572265,0.68555 c 0.09248,0.55253 -0.331257,0.99532 -0.870317,0.98393 -2.721792,0.59196 -4.781782,3.41144 -4.319874,6.19741 0.157046,1.90977 1.374701,3.6238 3.063647,4.50227 0.612653,0.3856 1.337063,0.61473 2.046466,0.65623 0.247084,0.43187 0.119076,1.01365 0.0293,1.44922 -1.037826,-0.0867 -2.085433,-0.47021 -2.999487,-0.99275 -2.094847,-1.17896 -3.577065,-3.46916 -3.497677,-5.91062 -0.157159,-2.02463 0.536439,-4.19019 2.139742,-5.53803 1.224269,-1.13945 2.811518,-1.85587 4.464844,-2.0293 -0.01888,0.22721 -0.03776,0.45443 -0.05664,0.68164 z m 71.246095,-0.67383 c -0.16527,0.52358 0.13354,1.43724 -0.6017,1.56767 -2.40136,0.31766 -4.48382,2.37069 -4.66884,4.81472 -0.31842,1.98301 0.40238,4.17427 2.10648,5.3266 0.8657,0.69125 1.89757,1.28188 3.03125,1.3125 0.2069,0.46673 0.0998,0.99427 0.0234,1.47851 -2.65766,-0.32435 -5.23452,-2.00566 -6.19894,-4.56899 -1.45325,-3.21179 0.0743,-7.28059 3.13436,-8.93834 0.96448,-0.57063 2.076,-0.8753 3.17395,-0.99267 z m -70.234376,0.006 c 4.081386,0 8.162766,0 12.244146,0 -0.10782,0.4158 0.29864,1.09416 -0.15039,1.32031 -4.08138,0 -8.16276,0 -12.244147,0 0.112009,-0.39986 -0.304796,-1.11934 0.150391,-1.32031 z m 27.517586,0 c 4.08138,0 8.16276,0 12.24414,0 -0.10782,0.4158 0.29864,1.09416 -0.1504,1.32031 -4.08138,0 -8.16276,0 -12.24414,0 0.11201,-0.39986 -0.30479,-1.11934 0.1504,-1.32031 z m 43.65624,0 c 4.08139,0 8.16277,0 12.24415,0 -0.10782,0.4158 0.29864,1.09416 -0.15039,1.32031 -4.08139,0 -8.16277,0 -12.24415,0 0.11201,-0.39986 -0.30479,-1.11934 0.15039,-1.32031 z m 39.25196,0 c 3.61784,0 7.23568,0 10.85351,0 0.33779,0.37402 1.15216,0.93247 1.19883,1.19382 -8.00474,0.005 -16.01221,0.18006 -24.01523,-0.0102 -0.30204,-0.0701 0.47745,-0.52088 0.60928,-0.73571 0.60613,-0.76595 1.6509,-0.338 2.48603,-0.44789 2.95586,0 5.91172,0 8.86758,0 z m -96.56641,0.13281 c 2.27076,0.46207 4.6901,1.85143 5.31857,4.22653 0.36374,1.76829 0.21433,3.58798 0.12258,5.3914 -0.3455,1.78624 -1.87921,2.97388 -3.30334,3.93987 -0.91936,0.50654 -1.92525,0.68054 -2.9464,0.82502 0.0271,-0.59949 0.0199,-1.50361 0.79233,-1.60718 1.94946,-0.53647 3.89956,-1.88661 4.30544,-3.9896 0.65201,-2.43649 -0.17566,-5.42664 -2.51645,-6.65167 -0.76864,-0.46645 -1.74216,-0.56026 -2.47976,-1.02108 -0.19216,-0.39128 -0.0531,-0.82923 -0.0781,-1.24415 0.26171,0.0436 0.52343,0.0872 0.78515,0.13086 z m 27.53321,0.004 c 3.51629,0.50443 6.3214,4.05559 6.00195,7.55469 -0.22296,3.08539 -2.55731,5.88889 -5.589,6.57779 -0.36141,0.0155 -1.1811,0.47773 -1.22466,0.0606 -0.0197,-0.60605 0.14078,-1.38824 0.87081,-1.45096 1.91766,-0.54397 3.81783,-1.8959 4.21238,-3.9648 0.61782,-2.32172 -0.0651,-5.15401 -2.22656,-6.4414 -0.8184,-0.55182 -1.78441,-0.84244 -2.70118,-1.13867 -0.30374,-0.38214 -0.10821,-0.8889 -0.14648,-1.33204 0.26758,0.0449 0.53516,0.0898 0.80274,0.13477 z m 43.64648,0.0215 c 3.12297,0.52153 5.84548,3.32555 5.77349,6.53982 0.15108,1.87009 -0.30517,3.85042 -1.61986,5.21185 -1.20419,1.45749 -3.04195,2.402 -4.93097,2.54715 -0.0852,-0.44664 -0.065,-0.98361 0.0957,-1.39843 0.57858,-0.28926 1.28949,-0.20802 1.85937,-0.56836 2.82047,-1.28669 4.14788,-5.01588 2.74158,-7.78788 -0.8331,-1.79461 -2.67512,-2.89043 -4.53455,-3.33712 -0.35727,-0.34632 -0.1278,-0.89151 -0.17968,-1.32618 0.26497,0.0397 0.52995,0.0794 0.79492,0.11915 z m -153.337894,0.36718 c -0.01988,3.79598 -0.191556,7.59414 -0.01172,11.38867 0.61793,0.56667 1.552017,0.26226 2.309196,0.38304 9.063286,0.19365 18.12941,0.0365 27.193897,0.0469 4.192329,-0.0136 8.384655,-0.0284 12.576985,-0.0413 0,-3.9694 0,-7.93881 0,-11.90821 -14.021484,0 -28.042969,0 -42.064453,0 l -0.003,0.1 z m 21.033203,0.53321 c 6.526042,0 13.052083,0 19.578125,0 -0.51922,0.41756 -0.870255,1.21891 -1.557422,1.32031 -12.108464,0 -24.216927,0 -36.325391,0 -0.427083,-0.44011 -0.854166,-0.88021 -1.28125,-1.32031 6.528646,0 13.057292,0 19.585938,0 z m -19.63086,1.24804 c 0.405372,0.40183 1.050411,0.79979 0.843751,1.46328 0,1.93412 -1e-6,3.86823 -1e-6,5.80235 -0.440104,0.42708 -0.880208,0.85416 -1.320312,1.28125 0,-3.00326 0,-6.00651 0,-9.00977 0.158854,0.1543 0.317708,0.3086 0.476562,0.46289 z m 39.738282,3.99024 c -0.01232,1.50393 -0.0044,3.00828 -0.05078,4.51172 -0.498406,-0.59558 -1.46685,-1.06002 -1.271484,-1.96914 0,-1.90417 0,-3.80834 0,-5.71251 0.440755,-0.42773 0.881511,-0.85546 1.322266,-1.2832 0,1.48438 0,2.96875 0,4.45313 z m 38.892579,0.82422 c 0,1.68294 0,3.36588 0,5.04882 -4.46631,-0.0618 -8.94729,0.14905 -13.402141,-0.22815 -2.147524,-0.22824 -3.720081,-2.36365 -3.779489,-4.39722 -0.115026,-2.19288 1.444562,-4.27825 3.445301,-5.06017 1.428684,-0.33225 2.92716,-0.18008 4.385139,-0.2829 3.1168,-0.0621 6.23424,-0.0737 9.35119,-0.12531 0,1.68164 0,3.36328 0,5.04493 z m 26.07813,-4.85938 c 1.9759,0.0663 4.26804,-0.18936 5.75417,1.37931 1.91952,1.83111 2.081,5.33442 -0.0156,7.09795 -0.71935,0.78484 -1.71879,1.4333 -2.82715,1.29118 -4.85543,0.16787 -9.76296,0.19099 -14.58861,-0.0362 -0.69627,-0.0909 -1.32087,-0.26455 -1.96346,-0.58186 0,-2.74805 0,-5.49609 0,-8.24414 0.95382,-0.78801 2.28636,-0.90997 3.50351,-0.86988 3.37832,-0.0799 6.75821,-0.0375 10.13712,-0.0364 z m 37.09375,-0.0137 c 3.15847,0.0494 6.35348,-0.0868 9.48437,0.17578 1.19097,0.0911 2.28939,0.53593 3.02666,1.48564 1.66583,1.87834 1.703,5.02613 -0.13228,6.80872 -1.10514,1.14709 -2.71251,1.45149 -4.24656,1.36923 -4.60572,0.0933 -9.22137,0.0734 -13.82097,-0.10789 -2.85759,-0.68562 -4.2828,-4.23485 -3.05039,-6.82631 0.73071,-1.73739 2.53952,-2.97269 4.44779,-2.83231 1.42963,-0.0625 2.86075,-0.0594 4.29138,-0.0729 z m -61.75,0.0859 c 2.83912,0.22433 4.99376,3.27501 4.29324,6.02125 -0.37246,1.60845 -1.65489,2.94156 -3.14609,3.58213 -0.56777,0.20704 -1.2178,0.34229 -1.77801,0.1681 0.0137,-0.83005 0.0483,-1.67154 0.0338,-2.51239 0.033,-2.43858 0.066,-4.87716 0.099,-7.31573 0.16602,0.0189 0.33203,0.0378 0.49805,0.0566 z m -60.421881,1.10546 c 5.996745,10e-6 11.993489,0 17.990234,0 0,1.93946 0,3.87891 0,5.81836 -11.99414,0 -23.988281,0 -35.982422,0 0,-1.93945 0,-3.8789 0,-5.81836 5.997396,0 11.994792,0 17.992188,0 z m 70.339851,1.44922 c 0.0829,1.81165 0.0269,3.62552 -0.0156,5.4375 -0.96449,-1.51713 -1.34812,-3.49462 -0.53678,-5.14855 0.18487,-0.41252 0.62586,-1.43595 0.55241,-0.28895 z m -70.339851,5.42969 c 6.100911,0 12.201823,0 18.302734,0 0.427735,0.44076 0.855469,0.88151 1.283203,1.32227 -13.055338,0 -26.110677,0 -39.166015,0 0.518896,-0.41849 0.869523,-1.22092 1.557422,-1.32227 6.007552,0 12.015104,0 18.022656,0 z m 47.265625,2.91016 c 4.081386,0 8.162766,0 12.244146,0 -0.10802,0.41639 0.2992,1.09604 -0.15039,1.32226 -4.08138,0 -8.16276,0 -12.244147,0 0.112193,-0.40037 -0.305345,-1.12137 0.150391,-1.32226 z m 27.517586,0 c 4.08138,0 8.16276,0 12.24414,0 -0.10802,0.41639 0.2992,1.09604 -0.1504,1.32226 -4.08138,0 -8.16276,0 -12.24414,0 0.1122,-0.40037 -0.30534,-1.12137 0.1504,-1.32226 z m 43.65624,0 c 4.08139,0 8.16277,0 12.24415,0 -0.10802,0.41639 0.2992,1.09604 -0.15039,1.32226 -4.08139,0 -8.16277,0 -12.24415,0 0.1122,-0.40037 -0.30534,-1.12137 0.15039,-1.32226 z m -286.98242,7.4082 c 2.91081,0 5.82162,0 8.73242,0 10e-6,2.73307 0,5.46615 0,8.19922 -3.71379,-0.0887 -7.46338,0.1873 -11.13867,-0.36133 -2.94055,-0.78255 -5.09025,-3.43286 -5.97104,-6.25673 -0.15978,-0.51442 -0.26248,-1.04562 -0.31802,-1.58116 2.89844,0 5.79688,0 8.69531,0 z m 239.58203,0 c 76.6849,0 153.3698,0 230.05469,0 0,2.73372 0,5.46745 0,8.20117 -30.13672,0 -60.27344,0 -90.41015,0 -1.43764,-2.09166 -4.41706,-3.14924 -6.78084,-2.06104 -1.07598,0.44177 -2.02671,1.16707 -2.76799,2.06104 -85.84896,0 -171.697922,0 -257.5468806,0 -1.1246875,-1.31821 -2.7242532,-2.24268 -4.4007414,-2.62413 -1.654216,0.071 -3.26432,0.81621 -4.501905,1.89215 -0.366305,0.42365 -0.782698,0.90155 -1.408291,0.73198 -30.763542,0 -61.527083,0 -92.290622,0 0,-2.73372 0,-5.46745 0,-8.20117 76.684242,0 153.368487,0 230.05273,0 z m 239.75,0 c 2.8698,0 5.73959,0 8.60938,0 -0.10153,2.78264 -1.66456,5.36553 -4.03665,6.81712 -0.82262,0.47764 -1.66575,1.04392 -2.58911,1.25623 -3.53946,0.0537 -7.07892,0.10735 -10.61838,0.16103 0,-2.7448 0,-5.48959 0,-8.23438 2.87825,0 5.75651,0 8.63476,0 z m -372.505858,6.62695 c 1.5085132,-0.0791 3.0381478,0.44316 4.1464843,1.42969 -2.3581761,0.21269 -4.8315013,0.10351 -7.2343753,0.125 0.846259,-0.79248 1.883071,-1.53036 3.087891,-1.55469 z m 267.228518,0 c 1.49843,-0.0768 3.01451,0.42917 4.14063,1.42578 -2.39404,0.22779 -4.8216,0.1017 -7.22852,0.12891 0.84599,-0.79259 1.88346,-1.52976 3.08789,-1.55469 z" />
    <path
       style="fill:none;stroke:#000000;stroke-width:1;stroke-linecap:butt;stroke-linejoin:miter;stroke-miterlimit:4;stroke-dasharray:none;stroke-opacity:1"
       d="m 35.815228,173.13998 v 36.46775"
       id="path59439" />
    <text
       xml:space="preserve"
       transform="matrix(0.26458333,0,0,0.26458333,-113.70115,6.4802443)"
       id="text61960"
       style="font-size:42.6667px;line-height:1.25;font-family:'Kode Mono';-inkscape-font-specification:'Kode Mono';white-space:pre;shape-inside:url(#rect61962)"><tspan
         x="400.26172"
         y="811.68948"
         id="tspan88075"><tspan
           style="font-weight:600;-inkscape-font-specification:'Kode Mono Semi-Bold'"
           id="tspan88073">microSD slot</tspan></tspan></text>
    <path
       style="fill:none;stroke:#000000;stroke-width:1;stroke-linecap:butt;stroke-linejoin:miter;stroke-miterlimit:4;stroke-dasharray:none;stroke-opacity:1"
       d="m 131.07087,173.33077 v 36.46775"
       id="path59439-8" />
    <path
       style="fill:none;stroke:#000000;stroke-width:1.17181;stroke-linecap:butt;stroke-linejoin:miter;stroke-miterlimit:4;stroke-dasharray:none;stroke-opacity:1"
       d="m 208.54188,160.41171 v 50.07532"
       id="path59439-8-5" />
    <path
       style="fill:none;stroke:#000000;stroke-width:1.35365;stroke-linecap:butt;stroke-linejoin:miter;stroke-miterlimit:4;stroke-dasharray:none;stroke-opacity:1"
       d="m 104.45609,107.74795 v 66.82226"
       id="path59439-8-3" />
    <path
       style="fill:none;stroke:#000000;stroke-width:1.35365;stroke-linecap:butt;stroke-linejoin:miter;stroke-miterlimit:4;stroke-dasharray:none;stroke-opacity:1"
       d="m 175.60761,106.77828 v 66.82226"
       id="path59439-8-3-1" />
    <text
       xml:space="preserve"
       transform="matrix(0.26458333,0,0,0.26458333,-11.740326,6.8682333)"
       id="text61960-9"
       style="font-style:normal;font-variant:normal;font-weight:600;font-stretch:normal;font-size:42.6667px;line-height:1.25;font-family:'Kode Mono';-inkscape-font-specification:'Kode Mono Semi-Bold';white-space:pre;shape-inside:url(#rect61962-3)"><tspan
         x="400.26172"
         y="811.68948"
         id="tspan88077">ESP32 UART</tspan></text>
    <text
       xml:space="preserve"
       transform="matrix(0.26458333,0,0,0.26458333,80.892532,6.7611665)"
       id="text61960-9-8"
       style="font-style:normal;font-variant:normal;font-weight:600;font-stretch:normal;font-size:42.6667px;line-height:1.25;font-family:'Kode Mono';-inkscape-font-specification:'Kode Mono Semi-Bold';white-space:pre;shape-inside:url(#rect61962-3-6)"><tspan
         x="400.26172"
         y="811.68948"
         id="tspan88079">On/Off</tspan></text>
    <text
       xml:space="preserve"
       transform="matrix(0.26458333,0,0,0.26458333,-33.489938,-110.38226)"
       id="text61960-9-4"
       style="font-style:normal;font-variant:normal;font-weight:600;font-stretch:normal;font-size:42.6667px;line-height:1.25;font-family:'Kode Mono';-inkscape-font-specification:'Kode Mono Semi-Bold';white-space:pre;shape-inside:url(#rect61962-3-0)"><tspan
         x="400.26172"
         y="811.68948"
         id="tspan88081">ESP32 COM</tspan></text>
    <text
       xml:space="preserve"
       transform="matrix(0.26458333,0,0,0.26458333,43.800451,-110.57948)"
       id="text61960-9-4-3"
       style="font-style:normal;font-variant:normal;font-weight:600;font-stretch:normal;font-size:42.6667px;line-height:1.25;font-family:'Kode Mono';-inkscape-font-specification:'Kode Mono Semi-Bold';white-space:pre;shape-inside:url(#rect61962-3-0-2)"><tspan
         x="400.26172"
         y="811.68948"
         id="tspan88083">Charging</tspan></text>
  </g>
</svg>
