<svg id="visual" viewBox="0 0 2560 2880" width="2560" height="2880" xmlns="http://www.w3.org/2000/svg" xmlns:xlink="http://www.w3.org/1999/xlink" version="1.1"><path d="M0 404L53.3 524C106.7 644 213.3 884 320 884C426.7 884 533.3 644 640 620C746.7 596 853.3 788 960 884C1066.7 980 1173.3 980 1280 922.5C1386.7 865 1493.3 750 1600 831.7C1706.7 913.3 1813.3 1191.7 1920 1268.3C2026.7 1345 2133.3 1220 2240 1124C2346.7 1028 2453.3 961 2506.7 927.5L2560 894L2560 0L2506.7 0C2453.3 0 2346.7 0 2240 0C2133.3 0 2026.7 0 1920 0C1813.3 0 1706.7 0 1600 0C1493.3 0 1386.7 0 1280 0C1173.3 0 1066.7 0 960 0C853.3 0 746.7 0 640 0C533.3 0 426.7 0 320 0C213.3 0 106.7 0 53.3 0L0 0Z" fill="#eaeaea"></path><path d="M0 577L53.3 677.8C106.7 778.7 213.3 980.3 320 1004.3C426.7 1028.3 533.3 874.7 640 898.7C746.7 922.7 853.3 1124.3 960 1225.2C1066.7 1326 1173.3 1326 1280 1282.8C1386.7 1239.7 1493.3 1153.3 1600 1186.8C1706.7 1220.3 1813.3 1373.7 1920 1436C2026.7 1498.3 2133.3 1469.7 2240 1373.7C2346.7 1277.7 2453.3 1114.3 2506.7 1032.7L2560 951L2560 892L2506.7 925.5C2453.3 959 2346.7 1026 2240 1122C2133.3 1218 2026.7 1343 1920 1266.3C1813.3 1189.7 1706.7 911.3 1600 829.7C1493.3 748 1386.7 863 1280 920.5C1173.3 978 1066.7 978 960 882C853.3 786 746.7 594 640 618C533.3 642 426.7 882 320 882C213.3 882 106.7 642 53.3 522L0 402Z" fill="#e7e7e7"></path><path d="M0 980L53.3 1071.2C106.7 1162.3 213.3 1344.7 320 1416.7C426.7 1488.7 533.3 1450.3 640 1474.3C746.7 1498.3 853.3 1584.7 960 1651.8C1066.7 1719 1173.3 1767 1280 1747.8C1386.7 1728.7 1493.3 1642.3 1600 1656.8C1706.7 1671.3 1813.3 1786.7 1920 1887.5C2026.7 1988.3 2133.3 2074.7 2240 2060.2C2346.7 2045.7 2453.3 1930.3 2506.7 1872.7L2560 1815L2560 949L2506.7 1030.7C2453.3 1112.3 2346.7 1275.7 2240 1371.7C2133.3 1467.7 2026.7 1496.3 1920 1434C1813.3 1371.7 1706.7 1218.3 1600 1184.8C1493.3 1151.3 1386.7 1237.7 1280 1280.8C1173.3 1324 1066.7 1324 960 1223.2C853.3 1122.3 746.7 920.7 640 896.7C533.3 872.7 426.7 1026.3 320 1002.3C213.3 978.3 106.7 776.7 53.3 675.8L0 575Z" fill="#e3e3e3"></path><path d="M0 1153L53.3 1229.8C106.7 1306.7 213.3 1460.3 320 1561.2C426.7 1662 533.3 1710 640 1777.2C746.7 1844.3 853.3 1930.7 960 1978.7C1066.7 2026.7 1173.3 2036.3 1280 1969.2C1386.7 1902 1493.3 1758 1600 1758C1706.7 1758 1813.3 1902 1920 2007.5C2026.7 2113 2133.3 2180 2240 2170.3C2346.7 2160.7 2453.3 2074.3 2506.7 2031.2L2560 1988L2560 1813L2506.7 1870.7C2453.3 1928.3 2346.7 2043.7 2240 2058.2C2133.3 2072.7 2026.7 1986.3 1920 1885.5C1813.3 1784.7 1706.7 1669.3 1600 1654.8C1493.3 1640.3 1386.7 1726.7 1280 1745.8C1173.3 1765 1066.7 1717 960 1649.8C853.3 1582.7 746.7 1496.3 640 1472.3C533.3 1448.3 426.7 1486.7 320 1414.7C213.3 1342.7 106.7 1160.3 53.3 1069.2L0 978Z" fill="#e0e0e0"></path><path d="M0 2478L53.3 2473.2C106.7 2468.3 213.3 2458.7 320 2473C426.7 2487.3 533.3 2525.7 640 2525.7C746.7 2525.7 853.3 2487.3 960 2425C1066.7 2362.7 1173.3 2276.3 1280 2281.2C1386.7 2286 1493.3 2382 1600 2410.8C1706.7 2439.7 1813.3 2401.3 1920 2406.2C2026.7 2411 2133.3 2459 2240 2463.7C2346.7 2468.3 2453.3 2429.7 2506.7 2410.3L2560 2391L2560 1986L2506.7 2029.2C2453.3 2072.3 2346.7 2158.7 2240 2168.3C2133.3 2178 2026.7 2111 1920 2005.5C1813.3 1900 1706.7 1756 1600 1756C1493.3 1756 1386.7 1900 1280 1967.2C1173.3 2034.3 1066.7 2024.7 960 1976.7C853.3 1928.7 746.7 1842.3 640 1775.2C533.3 1708 426.7 1660 320 1559.2C213.3 1458.3 106.7 1304.7 53.3 1227.8L0 1151Z" fill="#dbdbdb"></path><path d="M0 2593L53.3 2602.7C106.7 2612.3 213.3 2631.7 320 2655.7C426.7 2679.7 533.3 2708.3 640 2698.7C746.7 2689 853.3 2641 960 2597.8C1066.7 2554.7 1173.3 2516.3 1280 2516.3C1386.7 2516.3 1493.3 2554.7 1600 2554.7C1706.7 2554.7 1813.3 2516.3 1920 2550C2026.7 2583.7 2133.3 2689.3 2240 2713.3C2346.7 2737.3 2453.3 2679.7 2506.7 2650.8L2560 2622L2560 2389L2506.7 2408.3C2453.3 2427.7 2346.7 2466.3 2240 2461.7C2133.3 2457 2026.7 2409 1920 2404.2C1813.3 2399.3 1706.7 2437.7 1600 2408.8C1493.3 2380 1386.7 2284 1280 2279.2C1173.3 2274.3 1066.7 2360.7 960 2423C853.3 2485.3 746.7 2523.7 640 2523.7C533.3 2523.7 426.7 2485.3 320 2471C213.3 2456.7 106.7 2466.3 53.3 2471.2L0 2476Z" fill="#d6d6d6"></path><path d="M0 2881L53.3 2881C106.7 2881 213.3 2881 320 2881C426.7 2881 533.3 2881 640 2881C746.7 2881 853.3 2881 960 2881C1066.7 2881 1173.3 2881 1280 2881C1386.7 2881 1493.3 2881 1600 2881C1706.7 2881 1813.3 2881 1920 2881C2026.7 2881 2133.3 2881 2240 2881C2346.7 2881 2453.3 2881 2506.7 2881L2560 2881L2560 2620L2506.7 2648.8C2453.3 2677.7 2346.7 2735.3 2240 2711.3C2133.3 2687.3 2026.7 2581.7 1920 2548C1813.3 2514.3 1706.7 2552.7 1600 2552.7C1493.3 2552.7 1386.7 2514.3 1280 2514.3C1173.3 2514.3 1066.7 2552.7 960 2595.8C853.3 2639 746.7 2687 640 2696.7C533.3 2706.3 426.7 2677.7 320 2653.7C213.3 2629.7 106.7 2610.3 53.3 2600.7L0 2591Z" fill="#d1d1d1"></path></svg>