<svg id="visual" viewBox="0 0 2560 2880" width="2560" height="2880" xmlns="http://www.w3.org/2000/svg" xmlns:xlink="http://www.w3.org/1999/xlink" version="1.1"><rect x="0" y="0" width="2560" height="2880" fill="#464646"></rect><path d="M0 1019L61 960.7C122 902.3 244 785.7 365.8 767.2C487.7 748.7 609.3 828.3 731.2 851.3C853 874.3 975 840.7 1097 833C1219 825.3 1341 843.7 1463 815.3C1585 787 1707 712 1828.8 720.3C1950.7 728.7 2072.3 820.3 2194.2 811.3C2316 802.3 2438 692.7 2499 637.8L2560 583L2560 2881L2499 2881C2438 2881 2316 2881 2194.2 2881C2072.3 2881 1950.7 2881 1828.8 2881C1707 2881 1585 2881 1463 2881C1341 2881 1219 2881 1097 2881C975 2881 853 2881 731.2 2881C609.3 2881 487.7 2881 365.8 2881C244 2881 122 2881 61 2881L0 2881Z" fill="#323232"></path><path d="M0 998L61 1050.3C122 1102.7 244 1207.3 365.8 1256.5C487.7 1305.7 609.3 1299.3 731.2 1367.8C853 1436.3 975 1579.7 1097 1593.8C1219 1608 1341 1493 1463 1409.7C1585 1326.3 1707 1274.7 1828.8 1274.3C1950.7 1274 2072.3 1325 2194.2 1283C2316 1241 2438 1106 2499 1038.5L2560 971L2560 2881L2499 2881C2438 2881 2316 2881 2194.2 2881C2072.3 2881 1950.7 2881 1828.8 2881C1707 2881 1585 2881 1463 2881C1341 2881 1219 2881 1097 2881C975 2881 853 2881 731.2 2881C609.3 2881 487.7 2881 365.8 2881C244 2881 122 2881 61 2881L0 2881Z" fill="#282828"></path><path d="M0 1807L61 1782.7C122 1758.3 244 1709.7 365.8 1692C487.7 1674.3 609.3 1687.7 731.2 1693.2C853 1698.7 975 1696.3 1097 1654.3C1219 1612.3 1341 1530.7 1463 1575.2C1585 1619.7 1707 1790.3 1828.8 1829C1950.7 1867.7 2072.3 1774.3 2194.2 1783.2C2316 1792 2438 1903 2499 1958.5L2560 2014L2560 2881L2499 2881C2438 2881 2316 2881 2194.2 2881C2072.3 2881 1950.7 2881 1828.8 2881C1707 2881 1585 2881 1463 2881C1341 2881 1219 2881 1097 2881C975 2881 853 2881 731.2 2881C609.3 2881 487.7 2881 365.8 2881C244 2881 122 2881 61 2881L0 2881Z" fill="#1e1e1e"></path><path d="M0 2103L61 2074C122 2045 244 1987 365.8 1974.7C487.7 1962.3 609.3 1995.7 731.2 1975.7C853 1955.7 975 1882.3 1097 1877.2C1219 1872 1341 1935 1463 1954.7C1585 1974.3 1707 1950.7 1828.8 1984.5C1950.7 2018.3 2072.3 2109.7 2194.2 2125.5C2316 2141.3 2438 2081.7 2499 2051.8L2560 2022L2560 2881L2499 2881C2438 2881 2316 2881 2194.2 2881C2072.3 2881 1950.7 2881 1828.8 2881C1707 2881 1585 2881 1463 2881C1341 2881 1219 2881 1097 2881C975 2881 853 2881 731.2 2881C609.3 2881 487.7 2881 365.8 2881C244 2881 122 2881 61 2881L0 2881Z" fill="#141414"></path><path d="M0 2179L61 2228.2C122 2277.3 244 2375.7 365.8 2444.8C487.7 2514 609.3 2554 731.2 2551.5C853 2549 975 2504 1097 2455C1219 2406 1341 2353 1463 2379.7C1585 2406.3 1707 2512.7 1828.8 2523C1950.7 2533.3 2072.3 2447.7 2194.2 2445C2316 2442.3 2438 2522.7 2499 2562.8L2560 2603L2560 2881L2499 2881C2438 2881 2316 2881 2194.2 2881C2072.3 2881 1950.7 2881 1828.8 2881C1707 2881 1585 2881 1463 2881C1341 2881 1219 2881 1097 2881C975 2881 853 2881 731.2 2881C609.3 2881 487.7 2881 365.8 2881C244 2881 122 2881 61 2881L0 2881Z" fill="#050505"></path></svg>